<svg width="514" height="514" fill="none" xmlns="http://www.w3.org/2000/svg"><path fill-rule="evenodd" clip-rule="evenodd" d="M88.5 2.437c-1.65.747-21.756 20.192-44.68 43.21C6.924 82.697 2.06 87.941 1.441 91.346c-1.666 9.161-4.641 5.787 78.38 88.904L156.482 257l-76.661 76.75c-83.013 83.109-80.04 79.737-78.385 88.904.616 3.414 5.484 8.635 43.379 46.531 37.896 37.895 43.117 42.763 46.531 43.379 9.167 1.655 5.795 4.628 88.904-78.385L257 357.518l76.75 76.661c83.109 83.013 79.737 80.04 88.904 78.385 3.414-.616 8.635-5.484 46.531-43.379 37.895-37.896 42.763-43.117 43.379-46.531 1.655-9.167 4.628-5.795-78.382-88.901l-76.658-76.747 76.654-76.753c82.993-83.101 80.039-79.751 78.386-88.907-.616-3.414-5.484-8.635-43.379-46.531C431.289 6.92 426.068 2.052 422.654 1.436c-9.167-1.655-5.795-4.628-88.904 78.385L257 156.482 180.75 80.28c-53.353-53.319-77.366-76.664-79.968-77.741C96.259.667 92.479.635 88.5 2.437z" fill="#feb600"/></svg>