<svg width="16" height="15" fill="none" xmlns="http://www.w3.org/2000/svg"><path d="M7.302 5.247a1.14 1.14 0 00.147-.563 1.14 1.14 0 00-.147-.563h6.208c.304 0 .55.252.55.563a.557.557 0 01-.55.563H7.302zm-1.909 0H2.49a.557.557 0 01-.55-.563c0-.311.246-.563.55-.563h2.903a1.14 1.14 0 00-.148.563c0 .205.054.398.148.563zm5.214 5.633a1.14 1.14 0 000-1.126h2.903a.555.555 0 01.55.562.557.557 0 01-.55.563h-2.902zm-1.909 0H2.49a.557.557 0 01-.55-.564c0-.31.246-.563.55-.563h6.208a1.14 1.14 0 00-.147.563c0 .205.054.398.147.563z" fill="#171717"/><path fill-rule="evenodd" clip-rule="evenodd" d="M6.347 6.937c1.217 0 2.204-1.009 2.204-2.253 0-1.244-.987-2.253-2.204-2.253S4.143 3.44 4.143 4.684c0 1.244.987 2.253 2.204 2.253zm0-1.127c.609 0 1.102-.504 1.102-1.126 0-.622-.493-1.126-1.102-1.126-.608 0-1.102.504-1.102 1.126 0 .622.494 1.126 1.102 1.126zm3.306 6.76c1.217 0 2.204-1.01 2.204-2.254s-.987-2.253-2.204-2.253-2.204 1.009-2.204 2.253c0 1.244.987 2.253 2.204 2.253zm0-1.127c.608 0 1.102-.505 1.102-1.127S10.26 9.19 9.653 9.19c-.609 0-1.102.504-1.102 1.126 0 .622.493 1.127 1.102 1.127z" fill="#171717"/></svg>