<svg width="436" height="435" fill="none" xmlns="http://www.w3.org/2000/svg"><path fill-rule="evenodd" clip-rule="evenodd" d="M305.623 3.997L175.888.464l30.514 31.841 30.514 31.842-75.371 73.089-75.371 73.089 68.222 70.353 68.223 70.354 75.372-73.089 75.371-73.088 30.898 31.488 30.897 31.488.353-129.995c.194-71.497.24-130.065.101-130.151-.139-.086-58.634-1.745-129.988-3.688zM53.868 241.65L43.1 252.094l68.223 70.353 68.223 70.354 10.768-10.442 10.768-10.442-68.222-70.354-68.223-70.354-10.769 10.442zm-43.073 41.77L.026 293.863l68.223 70.354 68.223 70.353 10.768-10.442 10.769-10.442-68.223-70.354-68.223-70.354-10.768 10.443z" fill="#000"/></svg>