<svg width="49" height="46" fill="none" xmlns="http://www.w3.org/2000/svg"><path fill-rule="evenodd" clip-rule="evenodd" d="M9.856 4.738C2.958 12.373 1.539 16.87 1.174 32.25L.849 46H21V24.898l-3.468-1.449C15.625 22.652 13.15 22 12.032 22c-1.447 0-2.026-.648-2.01-2.25.026-2.712 3.455-10.514 5.72-13.017 1.516-1.675 1.488-1.948-.388-3.824L13.333.889 9.856 4.738zm28 0c-6.898 7.635-8.317 12.132-8.682 27.512L28.849 46H49V24.898l-3.468-1.449C43.625 22.652 41.15 22 40.032 22c-1.447 0-2.026-.648-2.01-2.25.026-2.712 3.455-10.514 5.72-13.017 1.516-1.675 1.488-1.948-.388-3.824L41.333.889l-3.477 3.849z" fill="#feb600"/></svg>