<svg width="49" height="46" fill="none" xmlns="http://www.w3.org/2000/svg"><path fill-rule="evenodd" clip-rule="evenodd" d="M0 10.551v10.551l3.468 1.449C5.375 23.348 7.85 24 8.968 24c1.443 0 2.029.652 2.022 2.25-.011 2.622-4.278 12.192-5.876 13.18-.749.463-.578 1.458.546 3.174l1.638 2.5 3.225-3.126c1.774-1.719 4.519-5.68 6.101-8.802 2.684-5.297 2.898-6.595 3.202-19.426L20.151 0H0v10.551zm28 0v10.551l3.468 1.449c1.907.797 4.382 1.449 5.5 1.449 1.443 0 2.029.652 2.022 2.25-.011 2.622-4.278 12.192-5.876 13.18-.749.463-.578 1.458.546 3.174l1.638 2.5 3.225-3.126c1.774-1.719 4.519-5.68 6.101-8.802 2.684-5.297 2.898-6.595 3.202-19.426L48.151 0H28v10.551z" fill="#feb600"/></svg>