<svg width="512" height="512" fill="none" xmlns="http://www.w3.org/2000/svg"><path fill-rule="evenodd" clip-rule="evenodd" d="M185.051 1.077C119.402 8.486 63.2 44.25 29.595 100c-13.79 22.877-22.341 46.262-27.255 74.543C-.279 189.611-.039 224.53 2.789 240c12.018 65.745 50.771 118.738 108.724 148.678 31.003 16.017 59.067 22.774 94.487 22.748 43.141-.03 78.513-10.7 114.468-34.527l11.967-7.931 69.533 69.36c46.899 46.784 70.834 69.973 73.532 71.243 5.419 2.552 16.672 2.573 21.5.041 12.031-6.31 17.545-19.264 13.505-31.725-1.655-5.105-5.411-9.058-71.684-75.469l-69.938-70.081 7.725-11.419c37.098-54.832 45.245-123.382 22.215-186.918-7.548-20.824-21.955-45.019-37.557-63.074-25.979-30.063-62.751-53.288-100.434-63.433-23.056-6.207-54.242-8.847-75.781-6.416zm35.738 50.986c38.037 4.165 67.711 18.286 94.277 44.865 27.094 27.106 41.507 57.87 45.104 96.273 3.215 34.329-5.983 69.3-26.262 99.846-8.421 12.685-28.176 32.44-40.861 40.861-51.293 34.052-114.308 35.843-166.444 4.731-37.622-22.452-64.089-60.235-72.787-103.911-3.182-15.98-3.182-41.476 0-57.456 8.97-45.04 36.71-83.461 76.672-106.194 26.708-15.192 60.405-22.288 90.301-19.015z" fill="#fff"/></svg>