<svg width="0" height="0" class="hidden"><symbol fill="none" xmlns="http://www.w3.org/2000/svg" viewBox="0 0 61 61" id="cookie"><path d="M56.746 18.414c-1.329-1.072-2.126-2.679-2.392-4.286-1.33-5.624-6.115-9.642-11.698-9.91-1.595 0-3.19-.803-4.52-1.607-4.519-3.481-10.9-3.481-15.419 0a7.186 7.186 0 01-4.519 1.607c-2.659.268-5.583 1.34-7.71 3.214-1.063.804-2.658 3.214-2.658 3.214-.532 1.072-1.064 2.411-1.33 3.482-.265 1.607-1.329 3.215-2.392 4.286C-.146 22.43-1.21 28.592 1.449 33.68c.798 1.607 1.064 3.214.798 4.82-.532 5.625 2.393 11.25 7.71 13.393 1.595.803 2.924 1.874 3.721 3.214C16.072 58.858 20.06 61 24.578 61c1.33 0 2.393-.268 3.722-.536a7.326 7.326 0 014.786 0c3.987 1.072 8.507.268 11.963-2.41.266-.268 1.595-1.34 2.393-2.679l.266-.267c.797-1.34 2.126-2.411 3.721-2.947 5.317-2.41 8.242-7.767 7.71-13.392-.266-1.606 0-3.481.798-4.82 2.126-5.357 1.063-11.518-3.19-15.535zm-2.392 20.623c.531 3.75-1.595 7.5-5.051 9.107-2.127 1.071-3.988 2.41-5.317 4.553-.532.536-1.064 1.071-1.33 1.607l-.531.536c-2.127 1.875-5.317 2.41-7.976 1.607-2.393-.804-4.785-.804-7.178 0-3.722 1.071-7.71-.536-9.836-3.482-1.33-2.143-3.19-3.75-5.583-4.821-3.456-1.607-5.583-5.09-5.051-9.107.265-2.41-.266-5.089-1.33-7.231-1.595-3.482-1.063-7.5 1.861-10.178 1.861-1.607 2.925-4.018 3.722-6.428.266-.804 1.861-4.018 2.659-4.553 1.595-1.34 3.19-2.143 5.317-2.143a16.455 16.455 0 006.912-2.41c1.595-1.072 3.456-1.608 5.051-1.608 1.861 0 3.722.536 5.051 1.607 2.127 1.607 4.254 2.41 6.912 2.41 3.722.269 6.912 2.947 7.976 6.697.532 2.41 1.86 4.553 3.722 6.428 2.658 2.678 3.456 6.696 1.86 10.178-1.594 2.142-2.126 4.553-1.86 7.231z" fill="currentColor"/><path d="M17.932 33.145c1.064 0 2.127-1.072 2.127-2.143V28.86c0-1.072-1.063-2.143-2.127-2.143-1.063 0-2.127 1.071-2.127 2.143v2.142c0 1.072.798 2.143 2.127 2.143zm26.851-2.143V28.86c0-1.072-1.063-2.143-2.127-2.143-1.063 0-2.127 1.071-2.127 2.143v2.142c0 1.072 1.064 2.143 2.127 2.143 1.064 0 2.127-1.072 2.127-2.143zm-9.836 1.072c.265-.536.531-1.072.531-1.607 0-.536-.266-1.072-.797-1.34-.532-.267-1.064-.535-1.595-.535-.532 0-1.064.268-1.33.803a2.075 2.075 0 01-2.924 0c-.266-.535-.797-.803-1.33-.803-.53 0-1.063.268-1.594.535-.532.268-.798.804-.798 1.34 0 .535.266 1.07.532 1.607 1.063 1.339 2.924 2.142 4.785 2.142 1.595 0 3.456-.803 4.52-2.142zM45.846 17.61v-.535c0-1.875-1.063-3.75-2.924-4.554l-.797-.267c-.532-.268-1.33-.536-2.127-.536-.798 0-1.861.268-2.393.803l-1.063.804c-1.595 1.071-2.659 3.214-2.393 5.089.532 2.41 2.393 4.017 4.785 4.017h1.861c2.925 0 5.051-2.142 5.051-4.82zm-9.57.536c-.266-1.34.266-2.678 1.595-3.214l1.063-.804c.798-.535 1.861-.535 2.925-.267l.797.267c1.064.536 1.861 1.607 1.861 2.947v.535c0 1.875-1.329 3.214-3.19 3.214h-1.86c-1.862-.268-2.925-1.339-3.191-2.678zm-16.217-4.553c-.532-.268-1.33-.536-2.127-.536-.797 0-1.33.268-1.86.536l-.532.535c-.798.536-1.33 1.34-1.596 2.411s0 2.143.798 2.946l.532.804c.797.803 1.595 1.339 2.924 1.339 1.33 0 2.659-.804 3.19-2.143l.532-1.071c.532-1.875-.266-3.75-1.861-4.821zm0 4.017l-.532 1.072c-.266.535-1.063 1.071-1.595 1.071-.531 0-1.063-.268-1.595-.803l-.532-.804c-.265-.536-.531-1.071-.265-1.607 0-.536.265-1.071.797-1.34l.532-.535c.266-.268.532-.268 1.063-.268.532 0 .798.268 1.33.268.797 1.072 1.063 2.143.797 2.946zm14.888 27.855l-1.064-.535c-.532-.268-1.063-.268-1.595-.268-1.33 0-2.658.803-3.19 1.875l-.266.268c-.532 1.071-.532 2.41.266 3.75l.532.535c.531 1.071 1.86 1.607 2.924 1.607.797 0 1.595-.268 2.127-.803l.797-.536c1.064-.804 1.595-1.875 1.33-3.214 0-1.072-.798-2.143-1.861-2.679zm-.532 4.821l-.798.536c-.265.268-.797.268-1.063.268-.532 0-1.33-.268-1.595-.804l-.532-.535c-.266-.536-.266-1.34 0-1.875l.266-.268c.266-.536 1.063-1.071 1.595-1.071.266 0 .532 0 .798.268l1.063.535c.532.268 1.063.804 1.063 1.607 0 .268-.265.804-.797 1.34zM46.91 39.037c-.266 0-.798 0-1.063.268l-.798.268c-1.595.536-2.659 2.41-2.127 4.018v.267c.266 1.072 1.33 2.143 2.393 2.41l.797.269h.798c1.595 0 3.19-1.34 3.19-2.946v-.804c0-1.071-.266-1.875-.797-2.678-.532-.804-1.33-1.072-2.393-1.072zm1.595 4.286c0 .803-.797 1.339-1.595 1.339h-.266l-.797-.268c-.532 0-1.064-.536-1.064-1.071v-.268c-.266-.804.266-1.607 1.063-1.875l.798-.268h.532c.531 0 .797.268 1.063.536.266.268.532.803.266 1.339v.536zm-28.978-3.75c-.531-1.607-2.127-2.678-3.988-2.946h-1.595c-1.329 0-2.392.535-3.456 1.607l-.265.268c-1.064 1.071-1.33 2.946-1.064 4.285l.532 1.34c.531 1.874 2.127 2.945 3.987 3.213l1.861.268h.266c1.861 0 3.456-1.071 3.988-2.678a4 4 0 000-3.482l-.266-1.875zm-.797 4.553c-.532 1.072-1.33 1.607-2.659 1.607h-.266l-1.86-.268c-1.064 0-2.127-.803-2.393-1.874l-.532-1.34c-.266-.803 0-1.874.532-2.678l.266-.268c.531-.535 1.329-1.071 2.126-1.071h1.595c1.064 0 2.127.803 2.393 1.875l.798 1.607c.266 1.071.266 1.875 0 2.41z" fill="currentColor"/></symbol><symbol fill="none" xmlns="http://www.w3.org/2000/svg" viewBox="0 0 18 18" id="search"><path d="M7.222 13.444A6.222 6.222 0 107.222 1a6.222 6.222 0 000 12.444zM17 17l-5.334-5.333" stroke="currentColor" stroke-width="1.5" stroke-linecap="round" stroke-linejoin="round"/></symbol><symbol xmlns="http://www.w3.org/2000/svg" viewBox="0 0 64 64" id="map"><path d="M24.31 52.669l15.381 8.992V11.876L24.31 2.451zm19.381 8.965l19.38-11.874V0l-19.38 11.876zM.929 64l19.382-11.331V2.371L.929 12.709z"/></symbol><symbol xmlns="http://www.w3.org/2000/svg" id="phone" viewBox="0 0 24 24"><path d="M6.62 10.79c1.44 2.83 3.76 5.15 6.59 6.59l2.2-2.2c.28-.28.67-.36 1.02-.25 1.12.37 2.32.57 3.57.57a1 1 0 011 1V20a1 1 0 01-1 1A17 17 0 013 4a1 1 0 011-1h3.5a1 1 0 011 1c0 1.25.2 2.45.57 3.57.11.35.03.74-.25 1.02l-2.2 2.2z"/></symbol><symbol fill="none" xmlns="http://www.w3.org/2000/svg" viewBox="0 0 26 22" id="arrow"><path d="M14.714 21L25 11M1 11h24M14.714 1L25 11" stroke="currentColor" stroke-width="1.5" stroke-linecap="round" stroke-linejoin="round"/></symbol><symbol fill="none" xmlns="http://www.w3.org/2000/svg" viewBox="0 0 14 10" id="yes"><path d="M1 5l4 4 8-8" stroke="#2E3192" stroke-width="1.5" stroke-linecap="round" stroke-linejoin="round"/></symbol><symbol fill="none" xmlns="http://www.w3.org/2000/svg" viewBox="0 0 7 10" id="arr"><path d="M1.5 1l4 4-4 4" stroke="currentColor" stroke-width="1.5" stroke-linecap="round" stroke-linejoin="round"/></symbol><symbol fill="none" xmlns="http://www.w3.org/2000/svg" viewBox="0 0 18 18" id="close"><path d="M17 1L1 17M1 1l16 16" stroke="#171717" stroke-width="1.5" stroke-linecap="round" stroke-linejoin="round"/></symbol><symbol xmlns="http://www.w3.org/2000/svg" viewBox="0 0 16 16" id="mail"><path d="M16 2L0 7l3.5 2.656L14.563 2.97 5.25 10.656l4.281 3.156z"/><path d="M3 8.5v6.102l2.83-2.475-.66-.754L4 12.396V8.5z"/></symbol><symbol fill="none" xmlns="http://www.w3.org/2000/svg" viewBox="0 0 512 512" id="close-bold"><path fill-rule="evenodd" clip-rule="evenodd" d="M55.459 1.395C44.935 3.951 41.174 6.634 23.892 23.904 5.53 42.251 3.01 46.076.808 58.913c-.951 5.544-.953 8.618-.01 14.121 2.592 15.108-.74 11.32 89.03 101.213l81.638 81.747-82.063 82.253c-77.158 77.336-82.23 82.634-84.844 88.624-5.772 13.228-5.74 26.403.094 38.966 3.792 8.164 33.346 37.718 41.51 41.51 8.503 3.948 18.224 5.337 26.924 3.845 14.918-2.558 10.498 1.333 100.663-88.614l82.25-82.05 81.75 81.64c89.896 89.774 86.108 86.442 101.216 89.033 8.643 1.482 18.39.084 26.871-3.854 8.164-3.792 37.718-33.346 41.51-41.51 3.938-8.481 5.336-18.228 3.854-26.871-2.591-15.108.741-11.32-89.033-101.216L340.528 256l81.64-81.75c89.774-89.896 86.442-86.108 89.033-101.216 1.482-8.643.084-18.39-3.854-26.871-3.74-8.051-33.271-37.542-41.51-41.452-12.416-5.892-25.692-5.944-38.966-.152-5.99 2.614-11.288 7.686-88.624 84.844l-82.253 82.063-82.247-82.047C103.479 19.321 90.699 6.997 86 4.802 75.946.104 65.546-1.056 55.459 1.395z" fill="currentColor"/></symbol><symbol id="clock" xmlns="http://www.w3.org/2000/svg" xml:space="preserve" viewBox="0 0 612 612"><path d="M587.572 186.881c-32.266-75.225-87.096-129.934-162.949-162.285C386.711 8.427 346.992.168 305.497.168c-41.488 0-80.914 8.181-118.784 24.428-75.225 32.265-130.298 86.939-162.621 162.285C7.895 224.629 0 264.176 0 305.664c0 41.496 7.895 81.371 24.092 119.127 32.323 75.346 87.403 130.348 162.621 162.621 37.877 16.247 77.295 24.42 118.784 24.42 41.489 0 81.214-8.259 119.12-24.42C500.47 555.06 555.3 500.009 587.573 424.791 603.819 386.914 612 347.16 612 305.664c0-41.488-8.174-80.907-24.428-118.783zm-48.848 253.972c-24.021 41.195-56.929 73.876-98.375 98.039-41.195 24.021-86.332 36.135-134.845 36.135-36.47 0-71.27-7.024-104.4-21.415-33.129-14.384-61.733-33.294-85.661-57.215-23.928-23.928-42.973-52.811-57.214-85.997-14.199-33.065-21.08-68.258-21.08-104.735 0-48.52 11.921-93.428 35.807-134.509 23.971-41.231 56.886-73.947 98.039-98.04 41.146-24.092 85.99-36.142 134.502-36.142 48.52 0 93.649 12.121 134.845 36.142 41.446 24.164 74.283 56.879 98.375 98.039 24.092 41.153 36.135 85.99 36.135 134.509 0 48.521-11.964 93.735-36.128 135.189z"/><path d="M324.906 302.988V129.659c0-10.372-9.037-18.738-19.41-18.738-9.701 0-18.403 8.366-18.403 18.738v176.005c0 .336.671 1.678.671 2.678-.671 6.024 1.007 11.043 5.019 15.062L392.836 423.45c6.695 6.695 19.073 6.695 25.763 0 7.694-7.695 7.188-18.86 0-26.099l-93.693-94.363z"/></symbol><symbol id="user" xmlns="http://www.w3.org/2000/svg" xml:space="preserve" viewBox="0 0 558.144 558.144"><path d="M509.795 358.632c5.307 2.856 9.486 6.938 12.545 12.24 3.063 5.304 4.594 11.424 4.594 18.36v135.864c0 9.384-2.652 17.235-7.957 23.562-5.307 6.324-12.035 9.486-20.195 9.486H59.363c-8.16 0-14.892-3.162-20.196-9.486s-7.956-14.178-7.956-23.561V389.232c0-6.938 1.53-13.158 4.59-18.666s7.446-9.486 13.158-11.937l171.972-80.169c-20.808-12.24-37.434-29.886-49.878-52.938s-18.666-49.062-18.666-78.03c0-20.4 3.264-39.576 9.792-57.528 6.528-17.952 15.504-33.558 26.928-46.818 11.424-13.26 24.888-23.766 40.392-31.518C245.003 3.876 261.527 0 279.071 0c17.544 0 34.068 3.876 49.572 11.628s28.969 18.258 40.393 31.518c11.424 13.26 20.4 28.866 26.928 46.818 6.527 17.952 9.791 37.128 9.791 57.528 0 28.152-6.117 53.754-18.357 76.806s-28.355 40.902-48.35 53.55l170.747 80.784z"/></symbol><symbol id="message" xmlns="http://www.w3.org/2000/svg" xml:space="preserve" viewBox="0 0 128 128"><path d="M112 0H16C7.164 0 0 7.164 0 16v64c0 8.836 7.164 16 16 16h24l32 32V96h40c8.836 0 16-7.164 16-16V16c0-8.836-7.164-16-16-16zm8 80c0 4.414-3.59 8-8 8H64v20.688L43.313 88H16c-4.41 0-8-3.586-8-8V16c0-4.414 3.59-8 8-8h96c4.41 0 8 3.586 8 8v64zM24 32h80v-8H24v8zm0 16h80v-8H24v8zm0 16h48v-8H24v8z"/></symbol><symbol id="letter" xmlns="http://www.w3.org/2000/svg" xml:space="preserve" viewBox="0 0 109.294 109.294"><path d="M54.648 48.141L101.063 19.2a9.821 9.821 0 00-1.542-.132H9.775c-.525 0-1.038.054-1.541.132l46.414 28.941z"/><path d="M57.569 59.331c-.062.04-.13.066-.194.104-.067.037-.139.073-.206.107a5.485 5.485 0 01-1.125.439c-.04.011-.078.017-.116.025-.423.099-.848.16-1.274.16h-.009c-.426 0-.852-.06-1.273-.16-.039-.009-.079-.015-.118-.025a5.64 5.64 0 01-1.124-.439 5.794 5.794 0 01-.207-.107c-.065-.037-.132-.063-.196-.104L.153 27.172A9.87 9.87 0 000 28.843v51.609a9.773 9.773 0 009.774 9.774H99.52c5.398 0 9.774-4.376 9.774-9.774V28.843c0-.572-.059-1.127-.154-1.671L57.569 59.331z"/></symbol><symbol fill="none" xmlns="http://www.w3.org/2000/svg" viewBox="0 0 21 29" id="mark"><path d="M10.5 0C4.71 0 0 4.79 0 10.677c0 1.535.31 3.002.918 4.358 2.625 5.841 7.659 12.008 9.14 13.759a.58.58 0 00.885 0c1.48-1.75 6.513-7.918 9.139-13.76.61-1.356.918-2.822.918-4.357C21 4.79 16.289 0 10.5 0zm0 16.222c-3.008 0-5.455-2.488-5.455-5.546 0-3.058 2.447-5.546 5.455-5.546 3.007 0 5.454 2.488 5.454 5.546 0 3.058-2.447 5.546-5.454 5.546z" fill="#FFF"/></symbol><symbol id="fb" xml:space="preserve" xmlns="http://www.w3.org/2000/svg" viewBox="0 0 512 512"><path d="M308.3 508.5c-2.5.1-4.1.3-5.7.3-34.2 0-68.3-.1-102.5.1-4.8 0-6.1-1.3-6.1-6.1.1-79.6.1-159.3.1-238.9V257H139v-85h5.4c15 0 30-.1 45 .1 3.8 0 4.8-1.1 4.8-4.8-.2-22.3-.2-44.7 0-67 .1-15.6 2.6-30.8 9.8-44.9 10.3-19.9 26.6-32.8 47.2-40.8 16.8-6.6 34.5-9 52.3-9.3 29-.4 58-.2 87-.3 2.7 0 4.9-.1 4.9 3.7-.1 27.5-.1 55-.1 82.5 0 .3-.1.6-.5 1.9h-5.5c-18 0-36-.1-54 0-10.4 0-18.8 4.2-24.1 13.3-1.6 2.7-2.6 6.2-2.6 9.4-.3 17 0 34-.2 51 0 4 1.2 5.1 5.1 5.1 25-.2 50-.1 75-.1h7.3c-3.5 28.6-6.9 56.6-10.4 84.9h-77.1v251.8z"/></symbol><symbol fill="none" xmlns="http://www.w3.org/2000/svg" viewBox="0 0 20 20" id="inst"><path d="M10 4.866c-.923 0-1.786.238-2.59.714a5.148 5.148 0 00-1.874 1.875A5.002 5.002 0 004.866 10c0 .923.223 1.786.67 2.59a5.648 5.648 0 001.875 1.874c.803.447 1.666.67 2.589.67s1.77-.223 2.545-.67a5.148 5.148 0 001.875-1.875A4.993 4.993 0 0015.134 10c0-.923-.238-1.77-.714-2.545a4.735 4.735 0 00-1.875-1.875A4.763 4.763 0 0010 4.866zm0 8.482a3.225 3.225 0 01-2.366-.982A3.225 3.225 0 016.652 10c0-.923.327-1.711.982-2.366A3.225 3.225 0 0110 6.652c.923 0 1.711.327 2.366.982s.982 1.443.982 2.366-.327 1.711-.982 2.366a3.225 3.225 0 01-2.366.982zm6.563-8.705a1.34 1.34 0 01-.402.848 1.019 1.019 0 01-.804.357c-.327 0-.61-.119-.848-.357a1.159 1.159 0 01-.357-.848c0-.328.119-.61.357-.848s.52-.357.848-.357c.328 0 .61.119.848.357.239.238.358.52.358.848zm3.392 1.205c-.06-.863-.193-1.607-.401-2.232a4.887 4.887 0 00-1.25-1.92 4.885 4.885 0 00-1.92-1.25C15.759.238 15.014.12 14.152.09 13.319.03 11.935 0 10 0S6.667.03 5.804.09C4.97.118 4.24.237 3.616.445a5.273 5.273 0 00-1.964 1.25 5.135 5.135 0 00-1.206 1.92C.238 4.24.104 4.985.045 5.847.015 6.682 0 8.065 0 10c0 1.934.015 3.333.045 4.196.06.834.193 1.563.401 2.188.268.744.67 1.399 1.206 1.964.565.536 1.22.923 1.964 1.16.625.239 1.354.373 2.188.403.863.06 2.261.089 4.196.089 1.934 0 3.319-.03 4.152-.09.863-.029 1.607-.148 2.232-.356a5.136 5.136 0 001.92-1.206 5.274 5.274 0 001.25-1.964c.208-.625.327-1.354.357-2.188.06-.863.089-2.261.089-4.196 0-1.935-.015-3.318-.045-4.152zm-2.142 10.045c-.358.893-.997 1.533-1.92 1.92-.476.178-1.28.297-2.41.357-.626.03-1.549.044-2.769.044H9.286a65.05 65.05 0 01-2.768-.044c-1.101-.06-1.905-.179-2.41-.358-.894-.357-1.534-.997-1.92-1.92-.18-.505-.298-1.309-.358-2.41a65.128 65.128 0 01-.044-2.768V9.286c0-1.19.015-2.113.044-2.768.06-1.131.179-1.935.357-2.41.358-.923.998-1.563 1.92-1.92.506-.18 1.31-.298 2.41-.358.656-.03 1.578-.044 2.769-.044h1.428c1.19 0 2.113.015 2.768.044 1.131.06 1.935.179 2.41.357.924.358 1.563.998 1.92 1.92.18.476.298 1.28.358 2.41.03.626.044 1.548.044 2.769v1.428c0 1.19-.015 2.113-.044 2.768-.06 1.101-.179 1.905-.358 2.41z" fill="#fff"/></symbol><symbol id="twitter" xml:space="preserve" xmlns="http://www.w3.org/2000/svg" viewBox="0 0 512 512"><path d="M4 440.5c55.6 5 105.7-9 151.3-43.2-47.7-4.2-79.6-28-97.4-72.6 15.6 1.9 30.2 2.4 45.7-1.8-51.4-16-78.8-49.6-82.5-103.8 15.4 7.2 29.9 12.4 47 12.6-30.5-22.9-46.1-52.6-45.5-90 .3-17.2 4.9-33.4 14-48.7C93.1 159.1 164 195.7 251.3 201.8c-.5-3.8-.8-6.8-1.2-9.9-7.2-55.4 28.8-105.8 83.8-116.3 34.5-6.6 65 2.5 90.8 26.3 4 3.6 7.4 4.4 12.4 3.1 20.1-5.1 39.2-12.5 57.7-22.5-7.1 23.4-21.7 41-41.5 55.8 4.5-.8 9.1-1.4 13.6-2.3 4.7-1 9.4-2.1 14.1-3.4 4.5-1.2 8.9-2.6 13.3-4.1 4.5-1.5 9-3.2 14.3-4.1-2.6 3.6-5.1 7.4-7.9 10.9-11.6 14.7-25 27.6-39.7 39.1-1.5 1.2-2.8 3.8-2.7 5.6.8 35.5-4.2 70.1-15.7 103.7-22.6 66.2-62 119.8-121.1 158.1-29.2 18.9-61.1 31.3-95.2 38.5-33.8 7.1-67.8 8.4-101.9 4.4-34.2-4-66.7-14.1-97.3-29.9-8.1-4.1-15.9-8.7-23.8-13.1.3-.4.5-.8.7-1.2z"/></symbol><symbol fill="none" xmlns="http://www.w3.org/2000/svg" viewBox="0 0 492 512" id="google"><path d="M163 1.12c-42.71 4.29-76.977 22.248-98.896 51.825-10.875 14.674-18.468 33.097-21.662 52.557-2.376 14.477-1.535 33.9 1.992 45.998 9.853 33.793 33.44 59.413 65.193 70.81 11.547 4.145 21.834 5.85 39.455 6.54l16.582.65-3.943 10.492c-3.534 9.405-3.934 11.395-3.86 19.197.127 13.569 4.05 23.202 14.543 35.713 2.031 2.421 3.333 4.72 2.894 5.108-.439.388-6.648 1.244-13.798 1.903-48.828 4.498-91.149 17.917-119.5 37.891-9.48 6.678-23.805 21.542-28.869 29.954-8.396 13.945-12.09 25.827-12.854 41.337-2.078 42.232 28.018 77.828 78.063 92.331 32.538 9.429 71.247 11.017 110.278 4.524 67.667-11.257 115.358-51.824 124.941-106.278 3.931-22.335-.23-47.919-10.738-66.023-10.239-17.639-27.551-35.401-53.067-54.443-9.49-7.082-18.992-14.808-21.117-17.169-10.365-11.518-11.218-27.814-2.178-41.608 3.542-5.404 6.679-8.309 24.041-22.267 12.263-9.857 25.574-23.431 31.389-32.008 15.105-22.277 19.694-50.83 12.64-78.64-4.609-18.167-14.089-34.001-29.779-49.736L255 30h36.627l10.356-12.125a4616.193 4616.193 0 0012.775-15L317.178 0l-72.839.133C204.278.206 167.675.65 163 1.12zm11 25.805c25.876 8.799 47.611 35.167 59.918 72.689 5.382 16.407 7.356 28.164 7.288 43.386-.092 20.419-4.793 34.023-15.924 46.08-7.325 7.935-15.308 13.117-25.09 16.287-10.445 3.386-13.161 3.849-22.205 3.79-31.349-.205-58.785-25.374-72.488-66.497-6.16-18.489-7.858-28.996-7.86-48.66 0-14.837.326-18.687 2.152-25.3 6.067-21.981 21.499-38.292 40.843-43.174 8.513-2.148 24.962-1.459 33.366 1.399zM384 183.5V216h-65v43h65v65h42.972l.264-32.25.264-32.25 32.25-.264 32.25-.264V216h-65v-65h-43v32.5zM217.648 334.177C252.81 359.585 265.34 372.425 271.15 389c3.07 8.757 3.318 27.633.473 36-9.742 28.658-34.259 47.195-72.249 54.625-11.708 2.289-39.617 2.283-54.372-.013-52.315-8.141-83.918-34.949-86.655-73.507-1.423-20.038 7.355-41.445 21.776-53.105 11.345-9.173 25.667-17.313 36.877-20.959 15.251-4.96 49.254-9.737 70.648-9.925l13.148-.116 16.852 12.177z" fill="currentColor"/></symbol><symbol fill="none" xmlns="http://www.w3.org/2000/svg" viewBox="0 0 512 504" id="linkedin"><path d="M57.97.992c-7.33 1.168-17.61 4.966-24.712 9.131C24.236 15.414 13.184 27.105 8.322 36.5 1.859 48.99.541 54.53.591 69c.038 10.973.38 13.477 2.8 20.5 4.048 11.749 8.009 18.043 17.038 27.071 9.02 9.022 15.308 12.981 27.07 17.047 7.149 2.471 9.386 2.765 21 2.759 11.664-.007 13.86-.3 21.353-2.858 19.225-6.563 34.646-21.125 42.109-39.763 7.377-18.424 6.512-36.736-2.632-55.689-3.773-7.819-5.943-10.816-12.69-17.525-8.765-8.716-19.711-15.177-30.64-18.084C78.963.585 65.084-.14 57.97.992zM365.842 146.05c-26.756 2.381-50.207 12.722-70.117 30.918L290 182.201v-7.14c0-10.2-2.931-15.505-10.755-19.469-2.912-1.475-8.205-1.62-50.075-1.371l-46.818.279-4.02 2.661c-7.978 5.281-7.332-9.924-7.328 172.49.003 158.025.06 162.941 1.897 165.954 1.041 1.707 3.627 4.182 5.746 5.5l3.853 2.395 49.761.285c33.301.192 51.085-.07 53.763-.792 5.328-1.434 10.687-6.29 11.946-10.825.659-2.373 1.021-37.599 1.024-99.736.007-105.394-.281-100.027 6.028-112.432 5.481-10.774 14.968-18.987 26.729-23.137 7.422-2.62 21.522-2.789 28.749-.345 11.446 3.87 22.495 12.716 26.537 21.246 5.536 11.683 5.288 6.851 5.898 114.815l.565 100.079 2.892 3.79c1.59 2.084 4.834 4.649 7.21 5.7 4.078 1.804 6.867 1.895 50.183 1.631l45.864-.279 3.516-2.41c1.933-1.325 4.6-3.992 5.925-5.926l2.41-3.517.302-115.074c.313-119.389.137-125.855-3.854-141.573-7.887-31.054-27.377-57.04-55.382-73.837-21.673-13-51.693-18.231-86.724-15.113zM23.5 156.383c-6.01 2.841-9.684 6.574-12.42 12.617-2.02 4.465-2.036 5.698-2.036 160 0 175.772-.794 159.416 8.139 167.618 7.484 6.871 7.57 6.882 51.817 6.882 43.62 0 42.827.103 50.382-6.53 2.055-1.804 4.722-5.123 5.927-7.375l2.191-4.095v-313l-2.162-4c-2.874-5.316-7.829-9.931-13.338-12.421-4.28-1.936-6.431-2.036-44-2.047-39.461-.012-39.505-.01-44.5 2.351z" fill="currentColor"/></symbol><symbol fill="none" xmlns="http://www.w3.org/2000/svg" viewBox="0 0 496 495" id="pinterest"><path d="M221 1.062C145.534 10.34 81.233 50.19 39.896 113.301 21.013 142.13 8.371 175.622 2.83 211.5c-1.727 11.179-2.162 18.433-2.162 36 0 25.267 1.937 40.977 7.771 63.028 23.723 89.655 95.873 158.814 186.627 178.889 41.638 9.211 93.297 6.69 130.934-6.39 66.32-23.046 116.189-67.116 145.674-128.734 16.206-33.865 23.701-67.637 23.701-106.793 0-30.394-3.284-51.123-12.514-79C457.399 91.602 394.866 31.69 316.442 9.054 295.274 2.944 279.296.794 252.5.45c-13.2-.17-27.375.106-31.5.613zm46.211 98.046c41.625 4.482 73.124 24.613 87.7 56.048 14.045 30.29 11.463 76.086-6.209 110.149-16.294 31.405-42.546 48.723-73.928 48.769-15.727.023-22.204-2.267-38.215-13.514-4.368-3.068-8.237-5.236-8.598-4.819-.361.417-1.232 4.134-1.935 8.259-4.956 29.087-14.446 56.376-25.075 72.104-4.419 6.539-16.005 18.896-17.716 18.896-2.573 0-3.069-38.824-.737-57.661 1.99-16.071 3.943-25.265 13.578-63.9 4.65-18.647 7.92-33.737 7.642-35.266-.268-1.47-1.51-5.373-2.76-8.673-1.826-4.817-2.282-8.07-2.313-16.5-.061-16.662 4.264-29.362 13.406-39.366 6.561-7.178 13.127-10.054 21.432-9.387 7.157.574 15.452 4.421 18.276 8.475 6.456 9.268 5.761 19.966-3.193 49.171-8.356 27.254-10.081 38.11-7.522 47.326 3.683 13.262 23.562 19.482 41.038 12.842 33.554-12.75 52.068-80.009 33.298-120.966-5.914-12.906-15.239-21.821-30.061-28.74-10.339-4.826-18.979-6.629-31.819-6.638-33.666-.026-65.669 19.849-80.159 49.783-5.783 11.947-7.594 20.917-7.173 35.538.359 12.486.128 11.783 9.768 29.698 4.092 7.606 4.89 13.956 2.686 21.369-2.492 8.381-2.694 8.553-8.318 7.081-8.39-2.197-15.62-6.365-21.889-12.617-11.179-11.151-15.86-25.51-15.832-48.569.023-18.991 2.855-31.041 11.069-47.104 5.357-10.476 10.285-17.24 19.124-26.25 26.975-27.498 63.543-39.94 104.435-35.538z" fill="currentColor"/></symbol><symbol fill="none" xmlns="http://www.w3.org/2000/svg" viewBox="0 0 512 512" id="24-hours"><path fill-rule="evenodd" clip-rule="evenodd" d="M213 .616c-56.704 5.2-106.466 28.15-145.35 67.034C19.897 115.402-4.636 181.993.93 248.745c8.781 105.314 87.13 191.05 190.737 208.724 13.579 2.316 30.303 3.438 33.685 2.258 5.387-1.877 6.62-9.525 2.205-13.673-1.838-1.727-4.284-2.282-13.648-3.097-52.135-4.536-97.583-25.543-133.953-61.913-26.672-26.672-44.694-57.463-54.789-93.608-3.232-11.573-6.79-31.796-7.413-42.127l-.373-6.192 18.784-.308c17.882-.294 18.891-.416 21.01-2.537 3.28-3.283 3.032-8.837-.53-11.902-2.685-2.308-3.237-2.37-21.22-2.37H16.962l.47-2.25c.257-1.238.74-5.85 1.07-10.25 1.642-21.837 9.318-49.289 19.851-71 11.823-24.371 22.69-39.675 41.58-58.567 18.892-18.891 34.196-29.757 58.567-41.58 21.711-10.533 49.163-18.209 71-19.851 4.4-.331 9.012-.813 10.25-1.071l2.25-.469v14.383c0 14.206.032 14.415 2.636 17.019 2.866 2.865 7.671 3.488 10.451 1.354 3.287-2.524 3.913-5.554 3.913-18.943V17.418l9.25.765c100.613 8.325 181.591 86.405 193.726 186.791.563 4.66 1.024 9.38 1.024 10.489 0 1.436-4.813-2.781-16.75-14.675-9.212-9.18-17.988-17.152-19.5-17.715-5.461-2.033-10.662 1.793-10.718 7.884-.03 3.199 1.917 5.411 26.193 29.75C447.667 246.215 448.567 247 452.391 247c3.812 0 4.764-.817 28.856-24.75 13.703-13.612 25.553-25.965 26.334-27.45 2.014-3.834 1.768-6.283-.951-9.444-1.786-2.077-3.275-2.756-6.04-2.756-3.42 0-4.873 1.202-21.39 17.7-9.746 9.735-18.053 17.7-18.46 17.7-.407 0-.74-1.785-.74-3.966 0-7.032-3.016-26.195-6.144-39.034C436.061 101.957 381.545 40.911 310.5 14.471c-12.318-4.584-32.667-9.799-46.56-11.932C253.794.981 222.075-.216 213 .616zm123 113.486c-1.375.538-23.248 21.706-48.608 47.041l-46.107 46.064-5.469-1.224c-4.193-.938-6.715-.956-10.818-.076l-5.35 1.147-22.664-22.527C175.616 163.289 174.107 162 170.614 162c-5.049 0-8.614 3.565-8.614 8.614 0 3.494 1.292 5.005 22.625 26.468l22.625 22.763-1.125 3.227c-3.846 11.032 2.401 25.03 13.632 30.545 5.115 2.511 16.45 2.509 21.243-.005 11.381-5.969 16.879-17.611 13.995-29.634l-1.251-5.214 46.628-46.636C345.278 127.214 347 125.354 347 121.746c0-3.577-2.647-7.746-4.918-7.746-.505 0-1.518-.197-2.25-.437-.733-.241-2.457.002-3.832.539zm-99.923 110.821c3.561 3.562 3.74 7.016.553 10.721-4.878 5.671-14.63 1.962-14.63-5.563 0-3.78 4.372-8.081 8.213-8.081 1.917 0 3.959 1.018 5.864 2.923zm41.423 66.476c-29.855 5.766-52.854 31.446-55.18 61.613-.6 7.773-.574 7.888 2.46 10.922 3.94 3.94 7.455 3.985 11.297.143 2.263-2.263 2.923-3.833 2.923-6.951 0-11.926 5.521-24.518 15-34.212 14.123-14.443 33.309-19.101 52.5-12.745 12.178 4.033 20.458 11.303 25.862 22.708 2.926 6.175 3.138 7.367 3.138 17.623 0 9.755-.294 11.627-2.597 16.537-1.822 3.883-16.914 22.409-50.51 62-26.351 31.055-50.72 59.809-54.152 63.899-7.292 8.687-7.885 11.574-3.318 16.141l2.923 2.923h61.627c65.151 0 66.188-.069 67.906-4.545 1.177-3.068.616-7.239-1.29-9.594l-1.911-2.361-52.48-.5-52.48-.5 47.708-56.173c39.413-46.407 48.252-57.361 50.841-63 4.189-9.125 5.397-15.019 5.35-26.107-.114-26.631-18.692-49.743-45.617-56.752-8.471-2.205-21.679-2.676-30-1.069zm189-.467c-1.1.467-2.944 1.911-4.098 3.209-4.618 5.193-120.165 171.524-120.71 173.762-.776 3.19 1.786 7.948 4.921 9.14 1.494.568 25.256.957 58.452.957H461v14.311c0 12.995.187 14.512 2.028 16.488 2.792 2.997 6.761 3.83 9.888 2.075 4.306-2.417 5.053-5.312 5.069-19.624L478 478l13.25-.015c14.312-.016 17.207-.763 19.624-5.069 1.755-3.127.922-7.096-2.075-9.888-1.976-1.841-3.493-2.028-16.471-2.028h-14.294l-.267-82.972c-.262-81.47-.303-83.009-2.267-84.937-2.424-2.381-6.291-3.308-9-2.159zM461 393.5V461h-47c-25.85 0-47-.286-47-.635 0-.638 93.283-134.319 93.75-134.349.137-.009.25 30.359.25 67.484z" fill="currentColor"/></symbol><symbol fill="none" xmlns="http://www.w3.org/2000/svg" viewBox="0 0 18 20" id="regicon"><path d="M9 11.711c1.657 0 3-1.308 3-2.921 0-1.613-1.343-2.921-3-2.921s-3 1.308-3 2.92c0 1.614 1.343 2.922 3 2.922z" stroke="currentColor" stroke-width="1.5" stroke-linecap="round" stroke-linejoin="round"/><path d="M14.657 14.299l-4.243 4.131c-.375.365-.883.57-1.413.57s-1.039-.205-1.414-.57L3.343 14.3a7.729 7.729 0 01-2.19-3.99 7.6 7.6 0 01.456-4.5 7.839 7.839 0 012.946-3.496A8.154 8.154 0 019 1c1.582 0 3.129.457 4.444 1.313a7.839 7.839 0 012.947 3.496 7.6 7.6 0 01.455 4.5 7.728 7.728 0 01-2.189 3.99v0z" stroke="currentColor" stroke-width="1.5" stroke-linecap="round" stroke-linejoin="round"/></symbol><symbol fill="none" xmlns="http://www.w3.org/2000/svg" viewBox="0 0 513 448" id="right"><path fill-rule="evenodd" clip-rule="evenodd" d="M283.421 1.419C276.914 4.252 277 3.353 277 68.901V128H143.468c-113.143 0-134.052.217-136.934 1.421-6.933 2.897-6.595-2.259-6.3 96.142L.5 314.164l3.266 2.918L7.032 320H277v59.099c0 51.23.206 59.532 1.545 62.355 3.123 6.582 10.857 7.803 17.185 2.713 2.074-1.667 51.327-50.649 109.452-108.849C519.843 220.51 514.42 226.472 510.654 219.371 508.357 215.039 294.955 2.267 291.685 1.049c-3.551-1.323-4.471-1.282-8.264.37z" fill="currentColor"/></symbol><symbol fill="none" xmlns="http://www.w3.org/2000/svg" viewBox="0 0 512 512" id="telephone"><path fill-rule="evenodd" clip-rule="evenodd" d="M98.5.676C85.39 2.319 63.045 8.442 54.617 12.701 34.9 22.665 9.232 65.462 2.26 100c-2.406 11.919-2.333 37.435.14 48.952 3.68 17.144 12.012 41.996 27.574 82.25 18.213 47.111 51.942 94.736 104 146.845C178.98 423.098 218.49 452.91 259 472.386c14.161 6.808 19.802 9.079 52.669 21.201 40.697 15.01 52.972 17.882 76.331 17.86 18.587-.017 26.858-1.376 43.382-7.128 29.178-10.156 60.145-31.557 67.917-46.936 5.067-10.026 10.891-32.657 12.227-47.512 1.463-16.264 1.477-16.25-41.526-39.861-33.571-18.431-44.944-25.006-55.864-32.292-18.092-12.072-23.845-13.745-32.799-9.537-6.142 2.888-18.586 15.3-31.398 31.319-12.118 15.152-24.002 27.496-28.863 29.981-8.015 4.098-14.932 1.642-43.283-15.367-36.07-21.639-56.605-37.134-79.572-60.041-22.837-22.777-38.617-43.664-60.335-79.866-17.009-28.351-19.465-35.268-15.367-43.283 2.474-4.838 14.779-16.698 29.981-28.897 15.988-12.829 28.506-25.382 31.354-31.44 4.17-8.871 2.474-14.671-9.572-32.723C166.973 86.91 160.296 75.355 142.001 42 123.634 8.514 121.244 4.861 115.668 1.75 112.664.074 106.419-.317 98.5.676z" fill="currentColor"/></symbol><symbol fill="none" xmlns="http://www.w3.org/2000/svg" viewBox="0 0 29 20" id="arrow-left"><path d="M28 10H1m0 0l9.214-9M1 10l9.214 9" stroke="#212121" stroke-width="2" stroke-linecap="round" stroke-linejoin="round"/></symbol><symbol fill="none" xmlns="http://www.w3.org/2000/svg" viewBox="0 0 29 20" id="arrow-right"><path d="M1 10h27m0 0l-9.214-9M28 10l-9.214 9" stroke="#212121" stroke-width="2" stroke-linecap="round" stroke-linejoin="round"/></symbol><symbol fill="none" xmlns="http://www.w3.org/2000/svg" viewBox="0 0 514 512" id="lines"><path fill-rule="evenodd" clip-rule="evenodd" d="M46.5 1.163C43.75 1.68 37.675 3.947 33 6.2 21.33 11.825 12.82 20.336 7.204 32 1.452 43.947.881 48.829 1.214 83.254l.286 29.754 56.497-56.504L114.493 0 82.997.112C65.674.173 49.25.647 46.5 1.163zm80.737 125.1L.977 252.526l.261 40.239.262 40.238 166.499-166.501L334.498 0h-81.001l-126.26 126.263zm109.446 109.554L2.885 469.617l2.124 5.677c5.565 14.873 17.894 27.159 32.884 32.767l5.49 2.054 233.8-233.798C468.525 84.976 510.876 42.154 510.395 40.51 505.57 24.008 488.992 7.43 472.49 2.605c-1.644-.481-44.466 41.87-235.807 233.212zm109.318 109.681L179.502 512h81.001l126.26-126.263 126.26-126.263-.261-40.239-.262-40.238-166.499 166.501zm110.002 109.998L399.507 512l30.996-.017c35.224-.02 40.23-.662 51.754-6.636 14.79-7.667 27.038-24.18 29.668-39.999.723-4.354 1.035-17.687.856-36.602l-.281-29.754-56.497 56.504z" fill="currentColor"/></symbol><symbol fill="none" xmlns="http://www.w3.org/2000/svg" viewBox="0 0 513 512" id="magic"><path fill-rule="evenodd" clip-rule="evenodd" d="M168.617 25.25c-.359 13.888-.931 31.213-1.27 38.5L166.73 77l8.385.007c4.612.004 11.362.288 15.001.632l6.615.625.625-14.882c.344-8.185.915-25.795 1.27-39.132L199.271 0H169.27l-.653 25.25zM58.995 59.505l-10.47 10.506 26.976 26.99 26.976 26.99 10.766-10.734 10.767-10.733-26.748-26.762C82.551 61.043 70.278 49 69.989 49c-.289 0-5.236 4.727-10.994 10.505zm208.243 18.757l-26.248 26.262 10.767 10.733 10.766 10.734 26.744-26.758 26.744-26.758-10.273-10.237C300.089 56.607 295.02 52 294.476 52c-.545 0-12.802 11.818-27.238 26.262zm-116.24 73.24l-33.49 33.502 30.532 30.532 30.532 30.532 33.889-34.103 33.889-34.102-29.919-29.932C199.976 131.469 186.057 118 185.501 118c-.557 0-16.083 15.076-34.503 33.502zM40.5 168.048c-11 .375-24.612.742-30.25.817L0 169v30.272l23.25-.644c12.788-.354 30.4-.925 39.138-1.27l15.888-.626-.632-8.116c-.348-4.464-.635-11.153-.638-14.866L77 167l-8.25.184c-4.537.101-17.25.49-28.25.864zm192.497 65.455l-33.491 33.502L321.751 389.25l122.244 122.244 34.004-33.993 34.005-33.994-121.75-121.753C323.291 254.789 268.05 200 267.496 200c-.554 0-16.078 15.076-34.499 33.503zM78.243 267.257C63.809 281.698 52 293.969 52 294.525c0 .556 4.618 5.613 10.262 11.238l10.262 10.227L99.5 289l26.975-26.989-10.47-10.506C110.247 245.727 105.3 241 105.011 241c-.289 0-12.334 11.816-26.768 26.257z" fill="currentColor"/></symbol><symbol fill="none" xmlns="http://www.w3.org/2000/svg" viewBox="0 0 469 513" id="tree"><path fill-rule="evenodd" clip-rule="evenodd" d="M255.831 2.023c-17.815 3.006-34.288 12.029-46.709 25.585-3.367 3.675-6.122 7.05-6.122 7.501 0 .451-2.047-.057-4.548-1.13-11.82-5.066-28.13-6.479-39.992-3.464-19.472 4.95-36.311 19.988-43.374 38.735-1.002 2.657-1.285 2.75-8.401 2.75-9.954 0-21.257 3.004-32.685 8.687-8.104 4.029-10.986 6.201-19.615 14.779-9.083 9.029-10.637 11.126-15.222 20.545-2.808 5.769-5.866 13.639-6.797 17.489-2.32 9.606-2.295 27.796.052 36.797l1.772 6.796-7.411 7.292C8.85 202.026 0 223.07 0 248.063c0 6.604.654 14.916 1.485 18.864 6.795 32.303 31.593 58.876 63.553 68.103 5.01 1.446 11.57 2.335 19.962 2.704l12.5.549 4.693 9.609c9.805 20.075 27.344 33.437 49.435 37.664 4.151.794 10.227 1.444 13.502 1.444 6.506 0 19.475-2.392 24.62-4.541l3.25-1.357v14.239c0 29.583-7.111 40.566-32.433 50.098-26.548 9.992-43.134 30.612-43.851 54.515-.21 6.993-.118 7.298 3.05 10.128l3.266 2.918h245.936l3.266-2.925c3.126-2.799 3.26-3.221 3.132-9.845-.267-13.799-5.997-26.844-16.366-37.259-7.663-7.697-15.999-12.984-27.749-17.597-11.708-4.596-16.141-7.379-22.047-13.841-8.505-9.306-9.505-13.187-9.989-38.783-.226-11.962-.162-21.75.143-21.75.304 0 3.11 1.791 6.236 3.981 14.56 10.199 34.812 14.181 53.198 10.459 22.761-4.607 42.834-21.554 51.455-43.44 1.408-3.575 2.721-7.395 2.918-8.488.23-1.28 2.839-3.29 7.325-5.645 22.248-11.679 38.807-32.815 45.078-57.537 3.211-12.659 3.372-29.822.396-42.33-2.48-10.424-10.407-27.011-16.461-34.443-2.477-3.041-4.503-5.922-4.503-6.402 0-.48 1.527-4.199 3.392-8.264 9.997-21.781 10.735-48.706 1.938-70.736-14.64-36.666-51.102-60.121-89.83-57.786-5.5.332-11.416 1.015-13.147 1.518-3.147.914-3.147.914-6.761-6.398-15.357-31.074-50.724-49.21-84.761-43.466zM281.5 22.504c21.054 4.421 38.399 20.514 45.089 41.834 2.06 6.567 6.005 10.67 10.238 10.649 1.47-.007 5.598-.976 9.173-2.154 5.156-1.699 9.084-2.159 19-2.228 14.263-.099 22.09 1.766 34.5 8.218 8.383 4.359 22.301 17.779 27.321 26.342 11.579 19.754 12.81 45.275 3.182 65.982l-1.23 2.648-7.25-3.911c-9.422-5.082-20.782-8.975-26.853-9.203-4.334-.162-5.141.167-7.863 3.211-2.611 2.921-2.958 3.948-2.495 7.397.735 5.477 2.998 7.37 11.691 9.779 19.619 5.437 35.798 18.558 44.334 35.954 2.558 5.213 5.329 12.16 6.157 15.438 1.939 7.673 1.917 24.154-.043 32.54-4.798 20.532-21.183 39.589-41.355 48.099-3.616 1.526-7.303 3.673-8.192 4.772-.89 1.098-2.171 4.839-2.846 8.313-3.714 19.095-18.235 34.241-37.689 39.308-21.246 5.534-45.663-5.435-56.164-25.23-3.849-7.256-6.293-9.262-11.281-9.262-4.559 0-8.546 3.469-9.435 8.209-.354 1.884-.467 20.045-.251 40.358.339 31.985.631 37.67 2.173 42.433 4.533 13.994 14.055 26.9 24.941 33.804 2.633 1.67 9.593 4.938 15.467 7.262 12.594 4.984 19.257 9.026 24.53 14.884 3.68 4.087 7.582 11.147 7.629 13.8.017.992-22.233 1.25-107.978 1.25-75.597 0-108-.319-108-1.063 0-2.896 5.887-12.493 10.054-16.391 4.732-4.426 15.025-10.179 22.446-12.545 20.888-6.661 36.513-23.934 40.911-45.223 1.308-6.334 1.588-15.258 1.583-50.486-.006-47.38-.695-55.634-5.946-71.307-6.613-19.739-13.67-30.659-31.657-48.986-7.288-7.426-13.758-14.833-14.377-16.461-3.124-8.217 5.888-16.288 13.615-12.193 1.579.837 13.446 12.173 26.371 25.192 24.247 24.423 28.074 27.399 35.282 27.441 11.571.067 19.651-8.862 19.696-21.767.107-30.742 11.363-69.827 27.626-95.928C289.081 144.493 292.041 142 297 142c4.692 0 8.474 2.877 10.047 7.642 1.121 3.396.944 4.067-2.958 11.235-10.788 19.821-16.66 34.634-20.662 52.123-2.652 11.589-5.065 35.324-4.016 39.503 1.841 7.334 11.218 10.022 16.509 4.731 2.588-2.588 2.812-3.503 3.492-14.25 1.655-26.186 8.2-47.689 21.559-70.841 5.929-10.276 7.432-16.594 5.908-24.84-1.46-7.899-3.899-12.236-9.926-17.656-10.595-9.526-26.979-10.221-38.646-1.641-10.176 7.483-27.467 41.407-34.726 68.13-3.367 12.397-6.241 29.838-7.12 43.211l-.713 10.847-24.124-23.984c-13.268-13.191-25.48-24.666-27.137-25.5-1.657-.834-5.747-2.054-9.09-2.712-5.117-1.006-7.076-.94-12.395.423-9.195 2.356-14.764 6.753-18.974 14.981-3.023 5.909-3.469 7.713-3.443 13.943.045 10.999 2.123 14.536 18.208 31.009 7.597 7.78 15.289 16.307 17.094 18.949 5.689 8.326 11.127 20.314 13.804 30.429 2.263 8.552 2.644 12.339 3.058 30.414l.474 20.645-6.362 3c-29.686 13.996-62.898-1.956-71.231-34.213-2.582-9.995-2.754-10.069-23.408-10.131-16.614-.049-18.179-.219-25.032-2.71-11.536-4.195-18.042-8.419-27.334-17.743C26.005 283.095 20.03 268.479 20.03 248.5c0-5.5.683-12.925 1.519-16.5 2.29-9.801 8.712-21.904 15.624-29.448l6.027-6.576 2.827 3.762c8.222 10.943 17.757 18.763 30.349 24.892 9.744 4.743 12.19 5.163 16.644 2.86 3.589-1.856 4.98-4.311 4.98-8.789 0-4.759-2.787-7.835-9.643-10.642-16.599-6.796-28.962-20.122-35.005-37.731-2.242-6.533-2.689-9.565-2.699-18.328-.011-9.107.384-11.634 2.977-19.044 5.342-15.265 15.291-26.989 29.035-34.21C92.693 93.476 99.39 92 113.276 92c6.52 0 12.721-.463 13.779-1.03 2.45-1.311 4.349-5.076 5.91-11.719 3.801-16.171 19.784-29.046 37.317-30.061 10.534-.61 16.834.949 26.084 6.454 6.402 3.81 8.232 4.466 10.997 3.948 3.624-.68 6.517-3.339 9.017-8.286 4.674-9.253 18.074-21.118 29.12-25.786 10.381-4.388 24.023-5.53 36-3.016zm1.186 264.911c-3.571 3.31-4.331 7.009-2.311 11.246 1.888 3.958 7.246 6.723 11.136 5.747 3.768-.946 7.489-5.945 7.489-10.062 0-8.013-10.385-12.425-16.314-6.931z" fill="currentColor"/></symbol><symbol fill="none" xmlns="http://www.w3.org/2000/svg" viewBox="0 0 512 376" id="users"><path fill-rule="evenodd" clip-rule="evenodd" d="M239.887 1.506c-3.636.724-10.082 2.707-14.323 4.405-56.599 22.663-70.6 95.864-26.343 137.725 46.231 43.726 121.766 21.739 137.883-40.136 4.222-16.209 2.4-38.259-4.439-53.724C322 25.661 298.703 6.91 272.792 1.584c-9.142-1.879-23.695-1.914-32.905-.078zM268.54 33.53c9.72 2.496 16.478 6.343 23.539 13.397 20.469 20.45 20.645 52.306.399 72.551-20.269 20.27-52.067 20.169-72.42-.228-32.076-32.146-9.604-86.586 35.982-87.167 3.597-.046 9.222.606 12.5 1.447zM87.275 76.54c-17.882 4.815-33.126 19.43-38.513 36.918-2.487 8.076-2.87 22.081-.806 29.516 4.869 17.541 18.693 32.294 35.778 38.185 9.77 3.369 25.969 3.241 35.281-.278 21.939-8.291 35.972-27.884 36.173-50.505.141-15.883-4.67-27.857-15.664-38.987-11.056-11.192-23.679-16.453-39.168-16.323-4.321.036-10.207.7-13.081 1.473zm310 0c-18.733 5.045-34.725 21.332-39.234 39.96-1.873 7.739-1.463 20.951.885 28.5 5.862 18.85 20.08 32.316 39.234 37.16 30.721 7.769 61.077-12.351 66.558-44.114 4.751-27.533-12.88-54.383-40.421-61.557-7.082-1.845-20.077-1.82-27.022.05zm-288.891 31.69c5.101 1.524 11.93 8.16 13.597 13.214 1.982 6.004.924 15.59-2.249 20.384-5.8 8.765-17.878 12.413-27.3 8.245-6.01-2.659-7.937-4.371-11.223-9.98-5.056-8.627-2.811-21.037 4.997-27.618 6.445-5.431 13.614-6.804 22.178-4.245zm310.898.118c18.414 7.717 19.001 33.139.956 41.4-6.857 3.14-14.072 2.711-20.808-1.236-14.841-8.698-14-31.017 1.477-39.186 5.088-2.685 13.263-3.12 18.375-.978zM84.45 188.391c-15.88 3.044-27.241 7.618-39.933 16.079-9.174 6.116-21.2 18.109-27.44 27.368C7.79 245.62 1.457 264.407.337 281.5c-.707 10.795.607 14.829 6.229 19.118l3.777 2.882 45.775.279 45.774.279-1.506 4.221c-4.902 13.741-9.047 39.887-8.194 51.683.466 6.45 2.245 9.781 7.194 13.476 2.757 2.059 2.993 2.062 155.767 2.321 171.437.291 157.399.899 162.654-7.041 2.429-3.672 2.611-4.694 2.414-13.594-.116-5.293-.7-13.224-1.298-17.624-.968-7.134-5.671-27.162-7.455-31.75-.642-1.651 1.831-1.75 43.525-1.75 49.245 0 48.559.087 53.814-6.822 2.532-3.329 2.688-4.146 2.597-13.61-.238-24.675-10.345-47.617-29.349-66.622-14.147-14.147-28.602-22.366-47.78-27.17-12.525-3.137-34.057-3.128-46.63.02-16.669 4.173-31.521 11.918-43.144 22.501l-6 5.463-7.987-4.01c-26.095-13.103-51.746-18.623-80.93-17.415-23.9.99-46.128 6.607-66.424 16.786l-9.502 4.766-5.316-4.858c-11.82-10.804-27.68-19.174-43.841-23.139-10.489-2.573-30.535-3.324-40.05-1.499zm30.342 32.162c4.239.855 10.876 3.038 14.749 4.852 6.556 3.071 17.459 10.127 17.459 11.299 0 .285-4.423 5.15-9.829 10.812-5.406 5.662-12.01 13.487-14.676 17.389L117.647 272H33.962l.62-2.75c.343-1.512 2.652-6.995 5.13-12.183 13.084-27.369 44.54-42.668 75.08-36.514zm310-.025c4.618.916 11.508 3.384 17.186 6.157 7.767 3.793 10.944 6.094 17.593 12.744 6.691 6.691 8.92 9.778 12.702 17.593 2.523 5.213 4.852 10.716 5.176 12.228l.589 2.75H395.23l-6.641-8.954c-3.653-4.925-10.431-12.899-15.062-17.722l-8.42-8.768 3.197-2.749c5.046-4.339 20.526-11.575 28.196-13.18 9.258-1.936 18.854-1.97 28.292-.099zM283 230.522c39.766 8.652 73.414 34.533 91.422 70.318 4.597 9.135 9.991 25.195 11.894 35.41l1.444 7.75H124.824l.661-4.25c4.394-28.235 18.819-55.518 39.902-75.469 20.513-19.411 45.165-31.114 75.113-35.659 6.439-.977 35.182.308 42.5 1.9z" fill="currentColor"/></symbol><symbol fill="none" xmlns="http://www.w3.org/2000/svg" viewBox="0 0 512 448" id="love"><path fill-rule="evenodd" clip-rule="evenodd" d="M134 .628c-25.789 3.28-46.773 10.599-65.742 22.928C38.848 42.67 17.72 70.165 7.21 103c-18.908 59.079-.185 120.041 58.663 191 11.362 13.7 48.965 51.603 65.127 65.647 28.325 24.612 59.374 48.244 91.487 69.634 29.175 19.433 32.437 20.772 41.013 16.842 6.533-2.995 45.384-29.366 65.334-44.348 36.074-27.089 61.784-49.425 89.668-77.895 53.16-54.279 82.036-101.933 91.123-150.38 2.506-13.366 2.501-39.164-.011-51.964-11.903-60.66-56.234-105.642-117.01-118.734-13.487-2.905-41.496-3.127-55.068-.435-27.551 5.464-51.515 17.32-72.782 36.012l-8.746 7.687-9.254-8.067c-5.09-4.437-12.342-10.14-16.116-12.672C214.58 14.552 193.093 5.823 174.325 2.45 165.613.885 140.797-.237 134 .628zm28.533 32.44c31.217 4.342 56.674 18.986 77.668 44.678C246.494 85.446 250.427 88 256 88c5.629 0 9.56-2.555 15.612-10.147 12.498-15.675 25.496-26.161 42.557-34.328 57.816-27.677 126.55-3.336 154.306 54.644 26.001 54.315 7.869 114.249-56.342 186.231-33.901 38.003-91.546 86.155-147.373 123.102l-8.74 5.785-14.26-9.564C149.013 341.524 77.561 270.649 48.98 212.5c-20.897-42.515-22.338-79.738-4.492-116 6.688-13.591 12.835-21.778 24.907-33.173 24.858-23.465 59.971-34.872 93.138-30.26z" fill="currentColor"/></symbol><symbol fill="none" xmlns="http://www.w3.org/2000/svg" viewBox="0 0 512 416" id="text"><path fill-rule="evenodd" clip-rule="evenodd" d="M236 .574c-1.925.216-8.225.877-14 1.469-33.435 3.427-68.898 13.08-97.91 26.652C58.349 59.449 14.947 107.985 2.819 164.312-.358 179.066-.332 206.025 2.873 221c3.306 15.447 7.355 26.908 14.662 41.5 8.146 16.268 17.053 28.811 30.245 42.594 40.584 42.401 93.541 67.684 160.504 76.628 10.224 1.366 19.781 1.747 42.216 1.683 50.201-.144 81.233-4.329 113.857-15.357l8.16-2.758 19.991 8.374c24.871 10.419 36.511 15.615 67.492 30.131 14.082 6.598 26.257 11.683 28.631 11.959 11.003 1.277 21.096-6.831 22.922-18.412.437-2.773-2.616-20.099-10.974-62.29C494.211 302.905 489 276.007 489 275.278c0-.729 2.686-6.828 5.969-13.552 6.89-14.112 10.981-25.88 14.158-40.726 3.205-14.975 3.231-41.934.054-56.688-7.946-36.907-29.756-71.394-62.093-98.186-42.29-35.039-92.078-55.801-152.746-63.697C283.176.976 243.615-.282 236 .574zm50.5 43.968c58.781 6.888 110.887 30.451 145.093 65.611C456.842 136.107 469 162.864 469 192.479c0 21.988-5.9 41.564-18.813 62.421-6.875 11.105-6.868 11.238 2.775 59.412 4.492 22.439 8.026 41.177 7.853 41.639-.173.462-8.865-2.966-19.315-7.617-30.307-13.491-62.659-26.561-67-27.067-3.071-.358-8.179.932-22 5.556-26.335 8.812-38.195 11.01-71 13.162-62.263 4.084-105.903-3.085-149.02-24.482C76.168 287.558 43 241.957 43 192.479c0-23.787 7.653-45.093 24.06-66.979 31.835-42.469 90.862-72.862 157.081-80.882 15.734-1.906 46.429-1.943 62.359-.076zm-146 85.826c-2.75 1.292-5.763 3.208-6.695 4.258-2.883 3.248-5.761 10.679-5.761 14.874 0 7.92 6.45 17.091 13.873 19.728 2.799.994 23.278 1.272 93.583 1.272h90l4.456-2.5c12.78-7.171 14.841-24.627 4.056-34.37-2.129-1.923-5.59-3.974-7.691-4.558-2.562-.711-32.985-1.059-92.321-1.057l-88.5.005-5 2.348zm3.249 84.045c-6.602 1.776-10.445 5.146-13.782 12.087-2.479 5.156-2.441 10.858.11 16.482 2.744 6.05 4.543 7.888 10.423 10.65l5 2.348 68-.012c63.826-.011 68.246-.125 72-1.847 8.194-3.759 12.754-10.766 12.774-19.631.022-9.644-7.059-18.42-16.495-20.444-7.539-1.617-131.885-1.286-138.03.367z" fill="currentColor"/></symbol><symbol fill="none" xmlns="http://www.w3.org/2000/svg" viewBox="0 0 385 513" id="pdf"><path fill-rule="evenodd" clip-rule="evenodd" d="M35 1.098C18.952 4.232 5.148 18.399 2.008 34.96.62 42.279.62 469.721 2.008 477.04c3.222 16.991 17.006 30.806 33.878 33.955 7.392 1.379 306.88 1.377 314.154-.003 16.991-3.222 30.806-17.006 33.955-33.878.649-3.482 1.005-68.323 1.005-183.349 0-156.243-.183-178.349-1.502-181.129C381.483 108.39 275.267 2.392 271.685 1.053 268.187-.255 41.707-.212 35 1.098zm222 53.266c0 18.349.452 35.787 1.005 38.75 3.149 16.872 16.964 30.656 33.955 33.878 2.922.555 20.327 1.008 38.676 1.008H364v170.451c0 121.896-.319 171.936-1.118 175.666-.883 4.116-2.113 6.209-5.834 9.931-3.722 3.721-5.815 4.951-9.931 5.834-7.383 1.583-300.851 1.583-308.234 0-7.368-1.581-14.184-8.397-15.765-15.765-1.589-7.413-1.589-428.821 0-436.234 1.483-6.915 8.482-14.237 14.999-15.691 2.69-.6 45.814-1.019 111.633-1.085L257 21v33.364zm67.256 52.405c-29.539.334-32.806-.223-39.287-6.705C278.56 93.655 278 90.492 278 60.706V36.511l35.006 34.994 35.007 34.995-23.757.269zm-152.538 65.604c-12.598 4.708-18.982 15.19-20.759 34.084-1.769 18.81 3.785 34.727 20.481 58.695l4.94 7.092-6.301 19.128c-8.026 24.366-15.93 45.806-17.42 47.254-.638.619-13.084 6.85-27.659 13.846-31.543 15.141-42.696 21.525-49.766 28.485-6.408 6.31-9.228 11.588-9.955 18.633-1.939 18.787 24 33.015 43.943 24.102 18.962-8.474 39.015-30.558 56.076-61.753l3.589-6.562 12.306-4.131c14.29-4.798 30.092-9.02 47.999-12.824l12.692-2.697 6.808 4.987c11.164 8.178 18.34 12.777 27.05 17.336 7.562 3.958 8.815 4.303 15.199 4.185 8.979-.166 13.747-1.499 19.665-5.497 6.002-4.053 9.453-10.602 10.148-19.254 1.138-14.184-5.859-22.759-21.6-26.468-7.46-1.758-28.789-1.563-40.154.366-5.225.886-10.019 1.614-10.654 1.616-3.246.011-30.399-25.008-42.979-39.601l-5.081-5.895 4.362-14c8.253-26.486 9.631-33.535 9.087-46.5-.747-17.822-5.09-27.526-14.728-32.91-3.527-1.97-6.063-2.475-13.91-2.77-6.611-.248-10.774.079-13.379 1.053zm18.444 22.632c2.452 3.298 3.525 16.531 1.946 24.021-.634 3.011-2.579 10.356-4.321 16.324-3.58 12.261-3.357 12.233-9.006 1.154-5.058-9.917-6.782-16.128-6.775-24.411.006-9.253 1.377-14.567 4.585-17.775 3.382-3.382 10.825-3.005 13.571.687zm16.228 110.368l13.576 13.374-6.112 1.202c-3.361.661-12.238 2.934-19.727 5.049-7.488 2.116-13.723 3.739-13.855 3.607-.314-.314 11.803-36.605 12.221-36.605.177 0 6.43 6.018 13.897 13.373zm88.761 26.652c3.886 1.08 5.19 2.882 4.141 5.725-.94 2.546-2.321 3.218-6.652 3.235-3.821.015-12.292-3.823-17.64-7.992l-2.5-1.949 9.5-.016c5.225-.009 11.143.439 13.151.997zM133.392 373.25c-2.39 4.112-11.481 14.569-17.761 20.428-11.378 10.618-18.229 13.188-26.233 9.844l-3.537-1.478 1.77-2.997c.974-1.648 3.786-4.444 6.25-6.213 4.316-3.1 37.774-20.758 39.428-20.809.445-.014.482.538.083 1.225z" fill="currentColor"/></symbol><symbol fill="none" xmlns="http://www.w3.org/2000/svg" viewBox="0 0 512 481" id="gift"><path fill-rule="evenodd" clip-rule="evenodd" d="M153.161 1.038c-28.442 3.859-50.436 24.755-55.8 53.016-2.933 15.451.167 33.096 8.16 46.446 4.323 7.22 13.815 17.122 21.88 22.826l5.901 4.174-54.9.5c-48.833.445-55.316.688-58.652 2.199-9.047 4.099-15.925 12.025-18.355 21.151C.391 155.121.025 163.861.028 184c.005 26.613.077 27.627 2.24 31.444 1.228 2.17 3.808 4.87 5.733 6 3.463 2.035 4.584 2.059 109.749 2.324l106.25.267V160h64v64.035l106.25-.267c105.165-.265 106.286-.289 109.749-2.324 1.925-1.13 4.505-3.83 5.734-6 2.162-3.817 2.234-4.831 2.239-31.444.003-20.139-.363-28.879-1.367-32.65-2.43-9.126-9.308-17.052-18.355-21.151-3.336-1.511-9.819-1.754-58.651-2.199l-54.901-.5 5.901-4.174c8.065-5.704 17.557-15.606 21.88-22.826 15.41-25.74 11.213-59.775-9.985-80.974C383.981 7.014 368.178.67 349.5.663c-25.818-.009-43.349 10.716-60.853 37.227-20.079 30.412-30.196 55.856-31.358 78.86-.312 6.188-.897 11.25-1.3 11.25s-.953-4.838-1.224-10.75c-.781-17.096-5.184-31.324-16.94-54.75-8.63-17.199-21.31-35.806-30.061-44.118-14.277-13.558-34.696-20.044-54.603-17.344zm21.551 33.116c11.065 4.119 23.877 20.155 35.255 44.128 9.625 20.28 15.283 40.3 13.05 46.174-3.41 8.969-40.693-2.897-70.073-22.301C135.059 90.343 128.642 81.091 128.559 67c-.054-9.343 1.44-14.406 6.088-20.633 4.748-6.36 8.279-9.148 15.187-11.989 7.516-3.092 16.946-3.176 24.878-.224zm183.788-.798c6.824 1.819 10.32 3.772 14.846 8.298 13.759 13.758 13.97 34.284.504 48.893-9.122 9.896-37.204 25.963-56.85 32.526-15.786 5.273-26.338 5.798-28.013 1.393-2.233-5.874 3.412-25.883 13.004-46.096 17.708-37.312 34.679-50.831 56.509-45.014zM32.231 355.75l.27 99.75 2.381 5.27c2.926 6.476 11.21 14.309 17.832 16.864 4.492 1.732 9.905 1.863 88.036 2.139l83.25.293V256H31.962l.27 99.75zM288 368.033v112.033l83.25-.293c78.131-.276 83.544-.407 88.036-2.139 6.622-2.555 14.906-10.388 17.832-16.864l2.382-5.27.269-99.75.269-99.75H288v112.033z" fill="currentColor"/></symbol><symbol fill="none" xmlns="http://www.w3.org/2000/svg" viewBox="0 0 512 470" id="heart"><path fill-rule="evenodd" clip-rule="evenodd" d="M122.5 1.056C55.045 10.174 3.975 68.249.312 140c-3.146 61.638 37.966 134.422 125.137 221.536 36.763 36.74 78.263 72.952 114.315 99.749 11.03 8.199 14.897 9.642 20.707 7.725 6.081-2.007 47.122-34.892 80.529-64.524 20.782-18.434 69.316-67.311 84.887-85.486 63.911-74.6 91.089-135.013 85.185-189.355-6.073-55.907-41.999-102.814-93.203-121.693C403.592 2.688 391.382.664 373.5.599c-22.731-.083-38.752 3.545-59 13.36-19.801 9.599-41.106 27.766-52.5 44.767-3.025 4.513-5.725 8.218-6 8.231-.275.014-2.213-2.634-4.307-5.883-18.608-28.884-52.577-51.562-87.756-58.588-9.411-1.879-32.276-2.669-41.437-1.43zm271 61.98c32.808 10.14 56.293 41.033 58.13 76.464.436 8.426.231 10.54-1.306 13.429-2.488 4.677-6.235 7.194-11.612 7.8-9.15 1.031-16.712-6.598-16.712-16.861 0-13.835-6.566-29.619-16.42-39.474-8.776-8.775-20.801-14.351-31.014-14.382-9.609-.029-17.299-7.813-16.318-16.519.587-5.208 3.543-9.622 7.97-11.903 4.354-2.242 17.625-1.539 27.282 1.446z" fill="currentColor"/></symbol><symbol fill="none" xmlns="http://www.w3.org/2000/svg" viewBox="0 0 456 433" id="star"><path fill-rule="evenodd" clip-rule="evenodd" d="M220.5 1.403c-1.65.728-3.739 2.173-4.642 3.21-.903 1.038-15.468 30.012-32.366 64.387s-31.009 62.8-31.358 63.168c-.349.367-32.134 5.235-70.634 10.817-49.88 7.232-70.861 10.649-72.997 11.886-6.748 3.912-9.693 14.016-6.099 20.929.772 1.485 21.585 22.353 46.25 46.374 24.665 24.02 47.438 46.313 50.606 49.539l5.76 5.866-12.003 69.991c-12.63 73.647-12.551 72.913-8.537 79.04 2.479 3.783 9.16 6.691 14.097 6.134 3.046-.343 21.549-9.579 66.336-33.11C199.075 381.685 227.497 367 228.073 367c.577 0 28.856 14.623 62.843 32.496 33.987 17.873 63.194 32.776 64.904 33.118 4.94.988 9.847-.434 13.552-3.928 6.707-6.326 6.935-3.435-6.4-81.182l-11.991-69.916 4.759-4.877c2.618-2.683 25.394-24.978 50.613-49.544 25.219-24.566 46.482-45.881 47.25-47.366 3.587-6.937.644-17.001-6.129-20.956-2.182-1.275-22.396-4.572-72.996-11.907-38.488-5.579-70.263-10.435-70.612-10.791-.349-.356-14.46-28.772-31.358-63.147S241.045 5.65 240.142 4.612c-3.784-4.351-13.47-5.934-19.642-3.209z" fill="currentColor"/></symbol><symbol xmlns="http://www.w3.org/2000/svg" viewBox="0 0 384 512" id="roller"><path d="M290.7 311L95 269.7 86.8 309l195.7 41zm51-87L188.2 95.7l-25.5 30.8 153.5 128.3zm-31.2 39.7L129.2 179l-16.7 36.5L293.7 300zM262 32l-32 24 119.3 160.3 32-24zm20.5 328h-200v39.7h200zm39.7 80H42.7V320h-40v160h359.5V320h-40z"/></symbol><symbol id="user" xmlns="http://www.w3.org/2000/svg" xml:space="preserve" viewBox="0 0 558.144 558.144"><path d="M509.795 358.632c5.307 2.856 9.486 6.938 12.545 12.24 3.063 5.304 4.594 11.424 4.594 18.36v135.864c0 9.384-2.652 17.235-7.957 23.562-5.307 6.324-12.035 9.486-20.195 9.486H59.363c-8.16 0-14.892-3.162-20.196-9.486s-7.956-14.178-7.956-23.561V389.232c0-6.938 1.53-13.158 4.59-18.666s7.446-9.486 13.158-11.937l171.972-80.169c-20.808-12.24-37.434-29.886-49.878-52.938s-18.666-49.062-18.666-78.03c0-20.4 3.264-39.576 9.792-57.528 6.528-17.952 15.504-33.558 26.928-46.818 11.424-13.26 24.888-23.766 40.392-31.518C245.003 3.876 261.527 0 279.071 0c17.544 0 34.068 3.876 49.572 11.628s28.969 18.258 40.393 31.518c11.424 13.26 20.4 28.866 26.928 46.818 6.527 17.952 9.791 37.128 9.791 57.528 0 28.152-6.117 53.754-18.357 76.806s-28.355 40.902-48.35 53.55l170.747 80.784z"/></symbol><symbol xml:space="preserve" xmlns="http://www.w3.org/2000/svg" viewBox="0 0 846.66 846.66" id="calendar"><path d="M303.84 160.66h238.98V90.92c0-11.44 9.28-20.71 20.71-20.71h92.72c11.43 0 20.7 9.27 20.7 20.71v69.74h51.66c59.94 0 108.9 48.96 108.9 108.9v397.99c0 59.94-48.96 108.9-108.9 108.9H118.05c-59.94 0-108.9-48.96-108.9-108.9V269.56c0-59.94 48.96-108.9 108.9-108.9h51.66V90.92c0-11.44 9.27-20.71 20.71-20.71h92.71c11.44 0 20.71 9.27 20.71 20.71v69.74zM123.69 390.52h57.67v57.67h-57.67v-57.67zm0 187.12h57.67v57.66h-57.67v-57.66zm432.47 0h57.67v57.66h-57.67v-57.66zm-144.16 0h57.67v57.66H412v-57.66zm-144.15 0h57.66v57.66h-57.66v-57.66zm-144.16-93.56h57.67v57.67h-57.67v-57.67zm432.47 0h57.67v57.67h-57.67v-57.67zm-144.16 0h57.67v57.67H412v-57.67zm-144.15 0h57.66v57.67h-57.66v-57.67zm288.31-93.56h57.67v57.67h-57.67v-57.67zm-144.16 0h57.67v57.67H412v-57.67zm-144.15 0h57.66v57.67h-57.66v-57.67zM50.57 301.98h612.45c27.24 0 27.24 41.42 0 41.42H50.57v324.15c0 37.07 30.41 67.48 67.48 67.48h610.56c37.07 0 67.48-30.41 67.48-67.48V269.56c0-37.07-30.41-67.48-67.48-67.48h-51.66v33.56c0 11.43-9.27 20.71-20.7 20.71h-92.72c-11.43 0-20.71-9.28-20.71-20.71v-33.56H303.84v33.56c0 11.43-9.27 20.71-20.71 20.71h-92.71c-11.44 0-20.71-9.28-20.71-20.71v-33.56h-51.66c-37.07 0-67.48 30.41-67.48 67.48v32.42zm211.85-190.35h-51.29v103.3h51.29v-103.3zm373.12 0h-51.3v103.3h51.3v-103.3z" id="Layer_x0020_1"/></symbol><symbol fill="none" xmlns="http://www.w3.org/2000/svg" viewBox="0 0 512 450" id="heart-sec"><path fill-rule="evenodd" clip-rule="evenodd" d="M123 .57c-1.375.24-5.875.929-10 1.532-17.673 2.582-40.219 12.367-56.157 24.371-51.14 38.519-70.611 112.934-46.252 176.766C25.86 243.25 57.806 282.401 121 338.552c25.505 22.662 125.414 107.949 128.456 109.656 3.662 2.055 9.126 2.26 12.544.471 3.191-1.671 109.566-92.576 132.981-113.643 42.256-38.019 67.849-65.636 85.988-92.79 22.107-33.095 32.331-67.292 30.717-102.746C508.518 69.899 464.738 15.636 401 2.307c-11.444-2.393-39.234-2.373-49.838.036-27.172 6.172-48.154 18.584-68.771 40.681-6.842 7.333-16.265 20.236-21.509 29.453C258.528 76.615 256.331 80 256 80c-.331 0-2.544-3.414-4.918-7.586-6.796-11.945-17.912-26.079-28.679-36.469-18.639-17.984-37.737-28.381-61.565-33.517C153.815.914 128.229-.342 123 .57z" fill="currentColor"/></symbol><symbol fill="none" xmlns="http://www.w3.org/2000/svg" viewBox="0 0 14 11" id="filter"><path d="M6.302 3.247a1.14 1.14 0 00.147-.563 1.14 1.14 0 00-.147-.563h6.208c.304 0 .55.252.55.563a.557.557 0 01-.55.563H6.302zm-1.909 0H1.49a.557.557 0 01-.55-.563c0-.311.246-.563.55-.563h2.903a1.14 1.14 0 00-.148.563c0 .205.054.398.148.563zM9.607 8.88a1.14 1.14 0 00.148-.564 1.14 1.14 0 00-.148-.563h2.903c.304 0 .55.252.55.563a.557.557 0 01-.55.563H9.607zm-1.909 0H1.49a.557.557 0 01-.55-.564c0-.31.246-.563.55-.563h6.208a1.14 1.14 0 00-.147.563c0 .205.054.398.147.563z" fill="currentColor"/><path fill-rule="evenodd" clip-rule="evenodd" d="M5.347 4.937c1.217 0 2.204-1.009 2.204-2.253 0-1.244-.987-2.253-2.204-2.253S3.143 1.44 3.143 2.684c0 1.244.987 2.253 2.204 2.253zm0-1.127c.609 0 1.102-.504 1.102-1.126 0-.622-.493-1.126-1.102-1.126-.608 0-1.102.504-1.102 1.126 0 .622.494 1.126 1.102 1.126zm3.306 6.76c1.217 0 2.204-1.01 2.204-2.254S9.87 6.063 8.653 6.063 6.449 7.072 6.449 8.316c0 1.244.987 2.253 2.204 2.253zm0-1.127c.609 0 1.102-.505 1.102-1.127S9.262 7.19 8.653 7.19c-.609 0-1.102.504-1.102 1.126 0 .622.493 1.127 1.102 1.127z" fill="currentColor"/></symbol><symbol fill="none" xmlns="http://www.w3.org/2000/svg" viewBox="0 0 512 512" id="code"><path fill-rule="evenodd" clip-rule="evenodd" d="M0 116.5V233h233V0H0v116.5zm279 0V233h233V0H279v116.5zm-93 0V186H47V47h139v69.5zm279 0V186H326V47h139v69.5zm-372 .018v23.519l23.25-.269 23.25-.268.268-23.25.269-23.25H93v23.518zm279.232-.268l.268 23.25 23.25.268 23.25.269V93h-47.037l.269 23.25zM0 395.5V512h233V279H0v116.5zm279 0V512h47V372h46v47h140V278.963l-23.25.269-23.25.268-.268 23.25-.269 23.25H419v-47H279v116.5zm-93 0V465H47V326h139v69.5zm-93-.018V419h47.037l-.269-23.25-.268-23.25-23.25-.268-23.25-.269v23.519zm279.685 70.166c-.377.377-.685 10.96-.685 23.519V512h47.037l-.269-23.25-.268-23.25-22.565-.268c-12.411-.148-22.873.04-23.25.416zm92.982.019c-.367.366-.667 10.941-.667 23.5V512h47v-47h-22.833c-12.559 0-23.134.3-23.5.667z" fill="currentColor"/></symbol><symbol fill="none" xmlns="http://www.w3.org/2000/svg" viewBox="0 0 354 512" id="microphone"><path fill-rule="evenodd" clip-rule="evenodd" d="M159.5 1.608c-10.026 1.791-16.165 3.77-24.746 7.974C109.187 22.11 89.604 45.38 81.801 72.5l-2.3 8v194l2.756 8.788c5.348 17.051 13.233 29.982 25.89 42.461 12.594 12.416 24.923 19.816 41.571 24.949 8.205 2.53 9.998 2.708 27.282 2.708s19.077-.178 27.282-2.708c16.648-5.133 28.977-12.533 41.571-24.949 12.657-12.479 20.542-25.41 25.89-42.461l2.757-8.788v-194l-2.301-8c-7.803-27.12-27.386-50.39-52.953-62.918C201.564.918 179.703-2 159.5 1.608zM11.5 198.89c-4.84 2.234-7.888 5.4-9.952 10.342-1.277 3.056-1.545 8.739-1.53 32.486.02 30.86.98 41.428 5.382 59.264 13.302 53.895 58.444 103.325 111.1 121.653 8.492 2.956 24.175 6.921 31 7.837 10.559 1.418 9.5-1.05 9.5 22.136V473h-41.435c-26.844 0-42.426.375-44.25 1.064-4.002 1.512-8.264 5.78-10.419 10.436-4.523 9.769-.296 21.041 9.604 25.61 3.806 1.757 8.96 1.846 106.5 1.846 97.541 0 102.694-.089 106.5-1.846 9.9-4.569 14.127-15.841 9.604-25.61-2.155-4.656-6.417-8.924-10.419-10.436-1.824-.689-17.406-1.064-44.25-1.064H197v-20.392c0-23.186-1.058-20.72 9.5-22.134 12.438-1.666 29.302-6.687 43.5-12.952 47.058-20.765 86.454-67.329 98.6-116.54 4.421-17.911 5.364-28.372 5.36-59.482-.004-26.078-.19-29.403-1.85-33-2.234-4.841-5.4-7.888-10.342-9.952-10.322-4.313-22.851 1.653-25.717 12.247-.552 2.038-1.183 16.755-1.404 32.705-.429 30.996-1.349 39.122-6.152 54.325-6.63 20.989-17.31 38.127-34.427 55.243-27.808 27.809-57.85 40.273-97.068 40.273-39.218 0-69.26-12.464-97.068-40.273-17.117-17.116-27.797-34.254-34.427-55.243-4.803-15.203-5.723-23.329-6.152-54.325-.22-15.95-.852-30.667-1.404-32.705C35 199.887 22.01 194.04 11.5 198.89z" fill="currentColor"/></symbol><symbol fill="none" xmlns="http://www.w3.org/2000/svg" viewBox="0 0 260 511" id="pin"><path fill-rule="evenodd" clip-rule="evenodd" d="M114 .668C60.209 6.008 22.769 33.57 7.598 79-3.163 111.222-2 150.775 10.794 187.742c11.444 33.064 118.819 323.042 119.402 322.457.383-.384 3.82-9.249 7.638-19.699 7.947-21.753 12.854-34.72 42.193-111.5 33.716-88.236 49.415-131.342 64.277-176.5 12.705-38.601 15.007-50.286 15.068-76.5.059-25.137-3.515-41.792-13.197-61.5-17.737-36.101-52.115-58.578-96.964-63.395C139.645.078 122.132-.14 114 .668zm37.973 58.31c29.001 8.353 51.317 32.67 57.095 62.217 1.763 9.014 1.324 24.471-.97 34.129-9.756 41.08-51.351 68.24-92.26 60.241-39.661-7.754-66.243-39.995-66.015-80.065.216-37.85 26.11-69.53 63.677-77.904 9.78-2.18 28.431-1.51 38.473 1.382z" fill="currentColor"/></symbol><symbol fill="none" xmlns="http://www.w3.org/2000/svg" viewBox="0 0 512 512" id="time"><path fill-rule="evenodd" clip-rule="evenodd" d="M231.5 1.06C182.949 6.093 137.384 24.44 98 54.816 87.064 63.25 63.25 87.064 54.815 98 25.709 135.737 8.688 176.367 1.819 224.5c-1.678 11.754-1.68 51.218-.005 63 4.19 29.455 11.975 55.257 24.138 80 13.761 27.994 27.24 46.801 49.493 69.055 22.04 22.039 41.249 35.858 68.055 48.956 25.252 12.339 47.707 19.428 75 23.676 20.065 3.123 54.96 3.121 75-.005 56.024-8.737 103.027-32.6 143.055-72.627 22.009-22.01 35.753-41.11 48.971-68.055 12.365-25.208 19.329-47.286 23.655-75 3.127-20.036 3.13-54.928.006-75-4.255-27.338-11.417-50.039-23.661-75-13.218-26.945-26.962-46.045-48.971-68.055-22.453-22.452-42.143-36.527-70.055-50.076-23.263-11.293-48.636-19.07-74.88-22.951-12.368-1.83-47.837-2.63-60.12-1.357zm48 42.962A213.248 213.248 0 01447.572 162.5c28.928 59.286 28.674 129.467-.683 188.424-11.354 22.804-23.725 39.758-42.107 57.706-38.582 37.673-87.512 58.463-141.443 60.098-36.991 1.122-68.904-5.574-100.839-21.156-51.827-25.288-91.025-70.146-108.885-124.603-7.542-23-10.599-42.311-10.599-66.969 0-33.538 7.029-64.273 21.383-93.5C96.122 97.909 157.433 53.834 228.5 44.534c12.255-1.604 38.839-1.871 51-.512zm-11.6 64.969c-4.823 2.549-9.556 8.108-10.84 12.732-.682 2.457-1.051 26.581-1.054 69.027L256 256l-65.25.006c-42.446.003-66.57.372-69.027 1.054-8.341 2.316-14.739 11.085-14.701 20.15.041 9.97 6.363 18.391 15.542 20.702 2.926.737 28.823 1.088 80.197 1.088 84.994 0 82.736.172 89.557-6.814 6.849-7.014 6.682-4.778 6.682-89.402 0-51.391-.351-77.294-1.088-80.22-1.402-5.567-6.181-11.327-11.341-13.671-5.373-2.441-13.953-2.395-18.671.098z" fill="currentColor"/></symbol><symbol fill="none" xmlns="http://www.w3.org/2000/svg" viewBox="0 0 513 512" id="ad-ss"><path fill-rule="evenodd" clip-rule="evenodd" d="M242 16v16H56.145l-2.323 2.888c-1.277 1.588-13.69 15.294-27.585 30.458L.975 92.918l27.762 30.498L56.5 153.914l92.75.043L242 154v358h30V246l92.75-.059 92.75-.059 27.444-30.191c15.094-16.605 27.382-30.552 27.306-30.992-.076-.441-12.425-14.278-27.444-30.749L457.5 124.002l-92.75-.001L272 124V0h-30v16z" fill="currentColor"/></symbol><symbol fill="none" xmlns="http://www.w3.org/2000/svg" viewBox="0 0 426 512" id="contacts"><path fill-rule="evenodd" clip-rule="evenodd" d="M42.23 21.25l.27 21.25h341l.27-21.25.27-21.25H41.96l.27 21.25zM38.5 85.657C22.792 87.64 10.403 96.511 3.803 110.5l-3.303 7v277l3.303 7c5.459 11.57 15.648 20.255 27.697 23.608 4.185 1.165 33.787 1.392 181.5 1.392s177.315-.227 181.5-1.392c12.049-3.353 22.238-12.038 27.697-23.608l3.303-7v-277l-3.303-7c-5.196-11.013-14.261-19.14-25.967-23.281-4.347-1.538-18.884-1.684-179.73-1.807-96.25-.074-176.35.036-178 .245zm184.78 59.814c9.077 1.924 15.974 5.779 23.295 13.02 18.901 18.695 18.909 48.21.018 67.102-18.922 18.922-48.264 18.922-67.186 0-18.891-18.892-18.883-48.407.018-67.102 7.174-7.096 14.231-11.107 22.826-12.975 8.189-1.778 12.8-1.788 21.029-.045zm.109 132.546c15.213 1.26 33.219 4.978 47.7 9.85 24.48 8.236 39.58 18.725 46.062 31.997 2.105 4.309 2.268 5.975 2.307 23.636l.042 19h-213l.042-19c.039-17.661.202-19.327 2.307-23.636 4.58-9.378 14.204-17.888 28.151-24.893 15.139-7.604 44.083-15.253 63.945-16.899 5.255-.436 9.78-.848 10.055-.916.275-.068 5.85.319 12.389.861zM42.67 469.664c-.369.368-.67 10.044-.67 21.503V512h342.04l-.27-21.25-.27-21.25-170.08-.253c-93.545-.139-170.382.049-170.75.417z" fill="currentColor"/></symbol><symbol fill="none" xmlns="http://www.w3.org/2000/svg" viewBox="0 0 20 2" id="min"><path fill-rule="evenodd" clip-rule="evenodd" d="M20 2H0V0h20v2z" fill="currentColor"/></symbol><symbol fill="none" xmlns="http://www.w3.org/2000/svg" viewBox="0 0 10 10" id="plus"><path d="M9.333 5h-9m4.5 4.5v-9" stroke="currentColor"/></symbol><symbol fill="none" xmlns="http://www.w3.org/2000/svg" viewBox="0 0 385 513" id="pdf"><path fill-rule="evenodd" clip-rule="evenodd" d="M35 1.098C18.952 4.232 5.148 18.399 2.008 34.96.62 42.279.62 469.721 2.008 477.04c3.222 16.991 17.006 30.806 33.878 33.955 7.392 1.379 306.88 1.377 314.154-.003 16.991-3.222 30.806-17.006 33.955-33.878.649-3.482 1.005-68.323 1.005-183.349 0-156.243-.183-178.349-1.502-181.129C381.483 108.39 275.267 2.392 271.685 1.053 268.187-.255 41.707-.212 35 1.098zm222 53.266c0 18.349.452 35.787 1.005 38.75 3.149 16.872 16.964 30.656 33.955 33.878 2.922.555 20.327 1.008 38.676 1.008H364v170.451c0 121.896-.319 171.936-1.118 175.666-.883 4.116-2.113 6.209-5.834 9.931-3.722 3.721-5.815 4.951-9.931 5.834-7.383 1.583-300.851 1.583-308.234 0-7.368-1.581-14.184-8.397-15.765-15.765-1.589-7.413-1.589-428.821 0-436.234 1.483-6.915 8.482-14.237 14.999-15.691 2.69-.6 45.814-1.019 111.633-1.085L257 21v33.364zm67.256 52.405c-29.539.334-32.806-.223-39.287-6.705C278.56 93.655 278 90.492 278 60.706V36.511l35.006 34.994 35.007 34.995-23.757.269zm-152.538 65.604c-12.598 4.708-18.982 15.19-20.759 34.084-1.769 18.81 3.785 34.727 20.481 58.695l4.94 7.092-6.301 19.128c-8.026 24.366-15.93 45.806-17.42 47.254-.638.619-13.084 6.85-27.659 13.846-31.543 15.141-42.696 21.525-49.766 28.485-6.408 6.31-9.228 11.588-9.955 18.633-1.939 18.787 24 33.015 43.943 24.102 18.962-8.474 39.015-30.558 56.076-61.753l3.589-6.562 12.306-4.131c14.29-4.798 30.092-9.02 47.999-12.824l12.692-2.697 6.808 4.987c11.164 8.178 18.34 12.777 27.05 17.336 7.562 3.958 8.815 4.303 15.199 4.185 8.979-.166 13.747-1.499 19.665-5.497 6.002-4.053 9.453-10.602 10.148-19.254 1.138-14.184-5.859-22.759-21.6-26.468-7.46-1.758-28.789-1.563-40.154.366-5.225.886-10.019 1.614-10.654 1.616-3.246.011-30.399-25.008-42.979-39.601l-5.081-5.895 4.362-14c8.253-26.486 9.631-33.535 9.087-46.5-.747-17.822-5.09-27.526-14.728-32.91-3.527-1.97-6.063-2.475-13.91-2.77-6.611-.248-10.774.079-13.379 1.053zm18.444 22.632c2.452 3.298 3.525 16.531 1.946 24.021-.634 3.011-2.579 10.356-4.321 16.324-3.58 12.261-3.357 12.233-9.006 1.154-5.058-9.917-6.782-16.128-6.775-24.411.006-9.253 1.377-14.567 4.585-17.775 3.382-3.382 10.825-3.005 13.571.687zm16.228 110.368l13.576 13.374-6.112 1.202c-3.361.661-12.238 2.934-19.727 5.049-7.488 2.116-13.723 3.739-13.855 3.607-.314-.314 11.803-36.605 12.221-36.605.177 0 6.43 6.018 13.897 13.373zm88.761 26.652c3.886 1.08 5.19 2.882 4.141 5.725-.94 2.546-2.321 3.218-6.652 3.235-3.821.015-12.292-3.823-17.64-7.992l-2.5-1.949 9.5-.016c5.225-.009 11.143.439 13.151.997zM133.392 373.25c-2.39 4.112-11.481 14.569-17.761 20.428-11.378 10.618-18.229 13.188-26.233 9.844l-3.537-1.478 1.77-2.997c.974-1.648 3.786-4.444 6.25-6.213 4.316-3.1 37.774-20.758 39.428-20.809.445-.014.482.538.083 1.225z" fill="currentColor"/></symbol><symbol fill="none" xmlns="http://www.w3.org/2000/svg" viewBox="0 0 512 512" id="price-tag"><path fill-rule="evenodd" clip-rule="evenodd" d="M279 2.332c-15.659 4.646-9.528-1.037-145.157 134.55C-4.41 275.091 3.447 266.527.812 281.891-.688 290.632.65 298.764 5.109 308c2.875 5.958 11.022 14.386 97.764 101.127 86.741 86.742 95.169 94.889 101.127 97.764 9.236 4.458 17.368 5.796 26.109 4.297 15.339-2.63 6.883 5.117 144.541-132.421C511.692 241.844 505.364 248.708 509.946 232.02c2.003-7.294 2.054-9.771 2.054-99.613 0-57.507-.378-94.158-1.005-97.521-3.149-16.872-16.964-30.656-33.955-33.878-3.342-.634-39.663-.988-97.926-.954L286.5.107 279 2.332zm117 84.891c20.023 6.005 32.917 26.139 29.992 46.833-2.576 18.224-17.712 33.36-35.936 35.936-27.881 3.941-51.989-20.167-48.048-48.048C345.574 96.718 371.68 79.93 396 87.223z" fill="currentColor"/></symbol><symbol fill="none" xmlns="http://www.w3.org/2000/svg" viewBox="0 0 323 410" id="shield"><path fill-rule="evenodd" clip-rule="evenodd" d="M154.5 1.89c-4.57 2.109-7.084 4.71-10.736 11.11-3.424 6-14.597 16.639-23.577 22.448-9.331 6.036-19.017 10.427-32.902 14.916-18.534 5.99-33.01 8.457-67.63 11.517C8.91 62.83 6.292 64.05 2.25 69.99L0 73.296v67.14c0 69.406.401 78.223 4.448 97.703 14.137 68.05 57.435 126.187 116.31 156.168 12.641 6.438 32.373 14.37 37.97 15.265 5.277.844 18.222-3.574 37.271-12.72 57.39-27.554 100.221-79.57 117.627-142.852 7.74-28.141 7.737-28.092 8.124-108.531l.346-72.03-2.298-3.378c-4.487-6.594-6.29-7.275-23.011-8.688-36.286-3.065-59.175-8.197-81.038-18.17-15.773-7.194-31.968-20.305-37.761-30.57-3.567-6.322-7.351-9.981-11.887-11.497-4.646-1.553-6.924-1.404-11.601.754zm20.091 119.173c1.44 1.34 5.997 9.187 10.127 17.437 4.129 8.25 7.57 15.066 7.645 15.146.075.08 7.757 1.292 17.071 2.692 18.114 2.724 20.151 3.532 24.316 9.652 2.648 3.89 2.887 8.839.644 13.31-.884 1.76-6.95 8.375-13.482 14.7l-11.876 11.5 3.039 17.227 3.039 17.227-1.989 4.497c-2.794 6.315-7.019 8.781-14.125 8.243-4.49-.34-8.07-1.79-19.5-7.901l-14-7.485-14.191 7.399c-7.805 4.069-15.558 7.791-17.23 8.27-6.389 1.833-14.931-2.969-17.129-9.628-.994-3.013-.743-6.315 1.577-20.717l2.76-17.132-11.729-11.5c-6.451-6.325-12.365-12.715-13.143-14.2-1.841-3.513-1.807-10.142.07-13.771 2.786-5.387 6.255-6.863 21.159-9.004 7.621-1.094 15.327-2.245 17.125-2.556 3.085-.535 3.712-1.452 11.186-16.379 9.368-18.709 11.088-20.389 20.281-19.82 4.382.272 6.355.931 8.355 2.793z" fill="currentColor"/></symbol><symbol fill="none" xmlns="http://www.w3.org/2000/svg" viewBox="0 0 512 512" id="headphone"><path fill-rule="evenodd" clip-rule="evenodd" d="M233.457.982c-69.094 7.33-131.393 43.293-174.88 100.956-29.591 39.238-47.601 83.102-55.773 135.837C.8 250.704.653 256.063.269 330.202c-.363 69.987-.234 79.068 1.16 82.009 2.819 5.939 4.056 6.256 25.82 6.614l19.75.325v27.269c0 24.685.19 27.82 2.006 33.095 5.068 14.732 14.707 24.496 29.637 30.023 4.018 1.487 8.922 1.87 28.358 2.211 23.386.412 23.517.402 27-1.954 2.217-1.499 3.965-3.777 4.768-6.213.998-3.029 1.21-26.387 1-109.964-.251-99.31-.381-106.283-2.025-108.702-3.445-5.069-5.309-5.415-29.151-5.415-23.328 0-27.62.593-36.592 5.054-10.075 5.01-19.546 16.243-23.127 27.431l-1.765 5.515-.054-28.658c-.06-31.122 1.074-44.23 5.602-64.842 14.096-64.172 53.046-119.447 106.225-150.75 17.997-10.595 38.069-18.274 60.119-23 11.63-2.494 14.205-2.68 37-2.68s25.37.186 37 2.68c54.026 11.581 98.698 42.497 130.873 90.573 13.369 19.975 22.163 38.117 29.411 60.677 8.989 27.978 11.735 48.544 11.662 87.342l-.054 28.658-1.765-5.515c-3.581-11.188-13.052-22.421-23.127-27.431-8.973-4.461-13.264-5.054-36.592-5.054-23.842 0-25.706.346-29.151 5.415-1.644 2.419-1.774 9.392-2.025 108.702-.289 114.808-.426 111.694 5.094 115.787 2.681 1.989 4.031 2.096 26.5 2.096 20.431 0 24.399-.253 28.968-1.845 15.135-5.275 25.05-15.17 30.201-30.141 1.815-5.275 2.005-8.41 2.005-33.095V419.15l19.75-.325c21.765-.358 23.002-.675 25.82-6.614 1.395-2.941 1.524-12.022 1.161-82.009-.384-74.139-.531-79.498-2.535-92.427-8.172-52.735-26.182-96.599-55.773-135.837-40.041-53.094-95.409-87.547-158.345-98.529C278.911.59 248.472-.61 233.457.982z" fill="currentColor"/></symbol><symbol fill="none" xmlns="http://www.w3.org/2000/svg" viewBox="0 0 512 492" id="alarm-clock"><path fill-rule="evenodd" clip-rule="evenodd" d="M73.66.98C54.296 4.5 36.037 14.426 23.318 28.342-5.15 59.49-7.542 106.137 17.575 140.315l3.54 4.815 34.692-33.999c19.081-18.7 47.168-46.516 62.416-61.815L145.946 21.5l-5.723-4.24c-7.889-5.845-20.182-11.75-29.723-14.277C101.512.603 81.668-.477 73.66.98zM412.5.628c-8.092 1.249-19.779 4.903-26.988 8.437-8.083 3.962-17.552 10.485-18.227 12.557-.202.617 27.439 28.659 61.424 62.316l61.791 61.194 3.196-3.8c4.209-5.004 11.543-19.182 14.138-27.332 10.999-34.548-1.181-73.452-29.918-95.565C462.851 6.843 446.532 1.039 427.5.503c-6.6-.186-13.35-.13-15 .125zm-182 29.474c-80.558 9.727-149.268 61.16-181.022 135.504-23.369 54.711-23.369 120.077 0 174.788 10.187 23.852 20.796 40.195 42.873 66.049l3.851 4.51-17.592 22.589c-20.094 25.802-21.856 29.313-19.654 39.152 1.614 7.214 6.27 13.144 13.051 16.627 4.652 2.39 6.433 2.766 11.637 2.46 10.383-.612 13.3-3.126 33.099-28.522l17.3-22.19 7.353 4.464c51.938 31.532 116.413 39.891 176.781 22.917 16.686-4.691 37.945-14.038 53.281-23.424l6.488-3.972 17.306 22.198c13.134 16.847 18.454 22.908 22.071 25.144 18.298 11.313 41.248-6.159 35.24-26.827-1.303-4.482-4.866-9.696-19.18-28.064l-17.58-22.559 3.849-4.507c22.23-26.032 32.61-42.023 42.87-66.045 19.131-44.789 22.767-98.722 9.871-146.394-12.903-47.696-42.772-91.279-82.893-120.954-29.274-21.652-59.588-34.594-96.5-41.201-13.286-2.378-48.996-3.374-62.5-1.743zm54.5 44.31c38.452 6.397 72.935 24.406 100.071 52.263 27.386 28.112 43.816 61.031 50.073 100.325 1.706 10.714 1.694 41.75-.021 52.5-6.178 38.726-23.287 72.794-50.408 100.37-28.94 29.426-64.717 47.172-106.016 52.584-39.405 5.163-82.714-3.889-115.533-24.149C115.852 379.097 85.52 333.651 76.863 279c-1.743-11.001-1.743-40.999 0-52 9.523-60.117 45.87-109.776 99.806-136.358C197.413 80.418 214.705 75.634 242 72.567c6.708-.754 34.561.44 43 1.845zm-34.576 72.607c-2.537 1.256-4.897 3.479-6.25 5.886-2.108 3.751-2.174 4.852-2.174 36.469v32.601l-3.75 2.403c-4.455 2.856-9.264 7.883-11.812 12.348l-1.841 3.225-55.376.275-55.376.274-3.362 3.669c-5.974 6.52-5.854 13.711.332 19.858l3.685 3.662 20.5.653c11.275.359 36.557.654 56.183.655 34.144.003 35.708.085 36.284 1.898.947 2.984 10.126 11.028 15.316 13.423 7.272 3.356 19.824 3.099 27.285-.558 16.8-8.234 24.166-27.383 16.982-44.144-2.221-5.182-9.084-13.065-13.248-15.218L271 222.949V190.29c0-30.932-.109-32.883-2.06-36.914-1.496-3.09-3.226-4.82-6.316-6.316-5.304-2.568-7.083-2.574-12.2-.041z" fill="currentColor"/></symbol></svg>